<svg xmlns="http://www.w3.org/2000/svg" fill="none" viewBox="0 0 334 228">
  <g clip-path="url(#a)">
    <path fill="#0D829C" d="M48.557 44.88a4.93 4.93 0 0 0 4.833-5.887 4.925 4.925 0 0 0-3.872-3.87 4.93 4.93 0 0 0-5.059 2.094 4.924 4.924 0 0 0 4.098 7.663Zm0-7.523a2.599 2.599 0 0 1 2.548 3.104 2.596 2.596 0 0 1-3.543 1.892 2.598 2.598 0 0 1-1.603-2.399 2.596 2.596 0 0 1 2.598-2.632v.035Z"/>
    <path fill="#FCC5E9" d="M225.535 164.941a4.933 4.933 0 0 0-4.553 3.041 4.924 4.924 0 0 0 3.592 6.716 4.928 4.928 0 0 0 5.889-4.831 4.94 4.94 0 0 0-4.928-4.926Zm0 7.523a2.6 2.6 0 0 1-2.548-3.104 2.597 2.597 0 1 1 2.548 3.104Zm5.208-72.736a2.063 2.063 0 0 0 2.034-2.46 2.06 2.06 0 0 0-4.085.41 2.05 2.05 0 0 0 2.051 2.05Z"/>
    <path fill="#0D829C" d="M40.704 171.905a2.05 2.05 0 1 0 0-4.1 2.05 2.05 0 0 0 0 4.1ZM189.652 221.897a1.164 1.164 0 0 0-1.165 1.165v3.831a1.165 1.165 0 0 0 2.33 0v-3.831a1.164 1.164 0 0 0-1.165-1.165Zm0-8.966a1.16 1.16 0 0 0-.823.341 1.16 1.16 0 0 0-.342.823v3.843a1.165 1.165 0 0 0 2.33 0v-3.843a1.162 1.162 0 0 0-1.165-1.164Zm6.42 6.521h-3.845a1.168 1.168 0 0 0-1.165 1.164 1.168 1.168 0 0 0 1.165 1.165h3.833a1.168 1.168 0 0 0 1.165-1.165 1.166 1.166 0 0 0-1.165-1.164h.012Zm-8.959 0h-3.845a1.168 1.168 0 0 0-1.165 1.164 1.168 1.168 0 0 0 1.165 1.165h3.845a1.164 1.164 0 0 0 0-2.329Z"/>
    <path fill="#FCC5E9" d="M55.698 103.979a1.167 1.167 0 0 0-1.165 1.164v3.843a1.166 1.166 0 0 0 1.989.824c.218-.219.341-.515.341-.824v-3.843a1.162 1.162 0 0 0-1.165-1.164Zm1.165-7.802a1.164 1.164 0 1 0-2.33 0v3.842a1.165 1.165 0 1 0 2.33 0v-3.842Zm1.387 5.368a1.167 1.167 0 0 0-1.165 1.165 1.164 1.164 0 0 0 1.165 1.164h3.844a1.167 1.167 0 0 0 1.165-1.164 1.165 1.165 0 0 0-1.165-1.165H58.25Zm-8.925 0a1.167 1.167 0 0 0-1.165 1.165 1.164 1.164 0 0 0 1.166 1.164h3.844a1.167 1.167 0 0 0 1.165-1.164 1.165 1.165 0 0 0-1.165-1.165h-3.845Zm79.152-45.847a1.458 1.458 0 0 0-1.386 1.526l.617 12.46a1.468 1.468 0 0 0 1.456 1.409h.07a1.462 1.462 0 0 0 1.01-.475 1.458 1.458 0 0 0 .377-1.05l-.618-12.45a1.447 1.447 0 0 0-1.526-1.42Zm10.159 14.615a1.47 1.47 0 0 0 2.027-.408l4.241-6.463a1.46 1.46 0 0 0 .295-1.134 1.448 1.448 0 0 0-.636-.984 1.463 1.463 0 0 0-1.695.066 1.46 1.46 0 0 0-.387.457l-4.253 6.451a1.453 1.453 0 0 0 .408 2.015Zm-25.56-7.372a1.468 1.468 0 0 0-.21 2.05l4.87 6.102a1.452 1.452 0 0 0 1.165.547 1.456 1.456 0 0 0 1.165-2.329l-4.87-5.997a1.469 1.469 0 0 0-.978-.654 1.457 1.457 0 0 0-1.142.281Zm106.529 74.25-1.479 1.164c-7.398 5.904-15.437 12.332-24.012 18.865l.21 3.494c9.169-6.987 17.767-13.823 25.631-20.1l1.479-1.164a511.262 511.262 0 0 0 38.446-33.957l-.99-3.121a508.256 508.256 0 0 1-39.285 34.819Z"/>
    <path fill="#FCC5E9" d="M11.719 186.38c5.988 10.772 17.673 24.012 39.32 26.213 23.428 4.181 47.369-.897 70.425-10.632l8.295-.489c-19.992 9.363-40.846 15.546-61.642 15.546a98.636 98.636 0 0 1-17.475-1.525c-17.755-1.817-32.516-11.645-41.463-27.646-11.918-21.345-12.256-50.318-.862-73.83C22.282 85.622 55.08 65.198 84.042 47.163l.094-.059.02-.012c22.348-13.9 41.666-25.914 47.315-38.44h3.219c-.185.416-.38.827-.586 1.234-5.922 13.23-25.459 25.398-48.06 39.476l-.358.222-.299.186c-28.529 17.784-60.889 37.955-74.449 65.575C.115 137.622.43 166.21 11.718 186.38Z"/>
    <path fill="#FCFCFC" d="m269.561 103.047-1.258 13.8 7.736-8.886-6.478-4.914Zm1.072-2.841 22.403 17.013 35.044-68.8-57.447 51.787Zm-13.072-11.063 64.286-39.011 3.775-3.412-88.285 29.555 19.805 12.472c.163.105.305.24.419.396Z"/>
    <path fill="#0D829C" d="m257.771 89.539 7.852 24.536 1.282-13.974c.035-.363.206-.7.478-.943l54.464-49.026-64.286 39.011c.088.122.159.255.21.396Z"/>
    <path fill="#142850" d="M333.649 41.91a1.479 1.479 0 0 0-1.573-.43l-98.572 33.002a1.471 1.471 0 0 0-.977 1.212 1.467 1.467 0 0 0 .662 1.408l21.949 13.788 3.67 11.447.99 3.121 5.22 16.303a1.453 1.453 0 0 0 1.386 1.013h.151a1.452 1.452 0 0 0 1.165-.873l10.602-12.181 14.307 10.865c.166.12.355.204.556.248.2.045.407.047.609.008a1.466 1.466 0 0 0 .978-.757l38.982-76.578a1.453 1.453 0 0 0-.105-1.596Zm-8.027 4.798-3.775 3.424-54.464 49.084c-.272.244-.443.58-.478.943l-1.282 13.975-7.852-24.537a1.696 1.696 0 0 0-.606-.792L237.36 76.333l88.262-29.625Zm-56.061 56.339 6.478 4.915-7.736 8.885 1.258-13.8Zm1.072-2.841 57.447-51.774-35.032 68.799-22.415-17.025Z"/>
    <path fill="#0D829C" d="m83.088 138.192-1.165-19.575-12.944 10.69 14.109 8.885Zm92.013-5.659 12.955-10.329-14.108-9.037 1.153 19.366Z"/>
    <path fill="#FCFCFC" d="m83.356 94.01 2.75 46.08 32.224 20.275 2.947-2.562a15.08 15.08 0 0 1 17.301-1.095l3.378 2.259 30.349-24.21-2.621-43.995-.128-1.875a14.787 14.787 0 0 1 4.485-11.645l-80.014 4.774a11.384 11.384 0 0 0-7.812 3.796 11.375 11.375 0 0 0-2.86 8.199Zm64.169 12.216a1.46 1.46 0 0 1-1.375 1.538l-51.983 3.097h-.093a1.458 1.458 0 0 1-1.1-2.456 1.456 1.456 0 0 1 1.018-.455l51.984-3.086a1.47 1.47 0 0 1 1.549 1.362ZM129.7 97.132a1.455 1.455 0 0 1-1.363 1.537l-34.776 2.073h-.081a1.46 1.46 0 0 1-1.503-1.41 1.456 1.456 0 0 1 1.41-1.502l34.764-2.073a1.456 1.456 0 0 1 1.549 1.375Zm-13.654 65.224-47.929-30.149 4.078 68.252 43.851-38.103Zm73.222-37.393-44.76 35.693 48.837 32.606-4.077-68.299Z"/>
    <path fill="#142850" d="M192.006 121.994a1.978 1.978 0 0 0-.07-.373v-.104l-.117-.233-.081-.105-.163-.175-.105-.081-.082-.07-17.65-11.331-.512-8.548 19.257-1.164a3.775 3.775 0 0 0 3.554-3.994l-.513-8.548c-.466-7.802-6.676-13.846-13.782-13.415l-87.878 5.229a14.267 14.267 0 0 0-9.847 4.785 14.25 14.25 0 0 0-3.55 10.353l1.234 20.833-16.135 13.299-.07.07-.105.105-.128.186-.07.128a.796.796 0 0 0-.081.233v.105a1.419 1.419 0 0 0 0 .384l4.403 73.889a1.41 1.41 0 0 0 .093.594 1.459 1.459 0 0 0 1.352.908h.082l50.41-3.005 8.295-.489 65.358-3.901a1.444 1.444 0 0 0 1.316-1.071 1.381 1.381 0 0 0 0-.536.561.561 0 0 0 0-.058l-2.097-35.133-.21-3.494-2.108-35.273Zm1.165-25.945a.888.888 0 0 1-.827.92l-19.223 1.164-.606-9.41c-.373-6.253 3.844-11.644 9.39-11.935 5.545-.292 10.38 4.483 10.753 10.736l.513 8.525Zm-77.125 66.307L72.23 200.459l-4.078-68.252 47.894 30.149Zm7.154-2.329a11.656 11.656 0 0 1 7.584-2.609 11.194 11.194 0 0 1 6.186 1.736l53.591 35.773-115.465 6.883 48.104-41.783Zm21.308.652 44.76-35.692 4.077 68.298-48.837-32.606Zm30.593-28.123-1.165-19.366 14.109 9.037-12.944 10.329Zm-5.534-43.658.129 1.875 2.621 43.996-30.291 24.21-3.378-2.259a15.083 15.083 0 0 0-17.301 1.094l-2.947 2.562-32.283-20.286-2.75-46.08a11.374 11.374 0 0 1 2.85-8.213c2.001-2.253 4.814-3.621 7.822-3.804l80.014-4.775a14.796 14.796 0 0 0-4.486 11.657v.023Zm-86.48 49.294-14.108-8.873 12.944-10.69 1.165 19.563Z"/>
    <path fill="#FCFCFC" d="M190.561 194.904 136.97 159.13a11.193 11.193 0 0 0-6.186-1.735 11.655 11.655 0 0 0-7.585 2.609l-48.103 41.782 115.465-6.882Z"/>
    <path fill="#0D829C" d="M181.87 76.764c-5.545.326-9.763 5.683-9.39 11.937l.606 9.409 19.223-1.165a.888.888 0 0 0 .827-.92l-.513-8.547c-.396-6.23-5.219-11.051-10.753-10.714Z"/>
    <path fill="#142850" d="M92.035 99.368a1.458 1.458 0 0 0 1.456 1.374h.082l34.776-2.073a1.46 1.46 0 0 0 1.369-1.543 1.456 1.456 0 0 0-1.544-1.369l-34.776 2.12a1.457 1.457 0 0 0-1.363 1.49Z"/>
    <path fill="#0D829C" d="m95.041 125.371 18.908-1.164a1.468 1.468 0 0 0 1.066-.455 1.46 1.46 0 0 0-.128-2.122 1.46 1.46 0 0 0-1.112-.323l-18.897 1.164a1.472 1.472 0 0 0-1.018.456 1.451 1.451 0 0 0-.271 1.595 1.458 1.458 0 0 0 1.37.861l.082-.012Zm29.393 12.775-18.908 1.164a1.46 1.46 0 0 0-1.41 1.503 1.457 1.457 0 0 0 1.503 1.409h.082l18.908-1.165a1.454 1.454 0 1 0-.175-2.9v-.011Zm5.686-9.06-34.73 2.061a1.469 1.469 0 0 0-1.363 1.549 1.456 1.456 0 0 0 1.503 1.362l34.73-2.072a1.457 1.457 0 0 0 .817-2.501 1.455 1.455 0 0 0-.992-.399h.035Zm3.53-8.932-11.313.675a1.467 1.467 0 0 0-1.016.46 1.452 1.452 0 0 0 .066 2.058 1.471 1.471 0 0 0 1.044.394h.081l11.313-.676a1.455 1.455 0 0 0-.175-2.899v-.012Zm15.634 7.791-11.312.675a1.457 1.457 0 0 0 .093 2.911h.082l11.312-.675a1.459 1.459 0 1 0-.175-2.911Z"/>
    <path fill="#142850" d="M92.641 109.522a1.458 1.458 0 0 0 1.456 1.363h.082l51.983-3.098a1.467 1.467 0 0 0 1.292-.979 1.48 1.48 0 0 0 .077-.564 1.46 1.46 0 0 0-1.544-1.368l-51.983 3.074a1.458 1.458 0 0 0-1.363 1.572Z"/>
  </g>
  <defs>
    <clipPath id="a">
      <path fill="#fff" d="M0 0h334v228H0z"/>
    </clipPath>
  </defs>
</svg>
