<svg xmlns="http://www.w3.org/2000/svg" fill="none" viewBox="0 0 789 353">
  <path fill="#E4F5F6" d="M0 34h713a4 4 0 0 1 4 4v241a4 4 0 0 1-4 4H0V34Z"/>
  <path fill="#E4F5F6" fill-rule="evenodd" d="M28.646 338.117a4 4 0 0 1 4 4v6.524a4 4 0 0 1-4 4h-6.525a4 4 0 0 1-4-4v-6.524a4 4 0 0 1 4-4h6.526ZM65.767 338.117a4 4 0 0 1 4 4v6.524a4 4 0 0 1-4 4h-6.525a4 4 0 0 1-4-4v-6.524a4 4 0 0 1 4-4h6.526ZM102.888 338.117a4 4 0 0 1 4 4v6.524a4 4 0 0 1-4 4h-6.525a4 4 0 0 1-4-4v-6.524a4 4 0 0 1 4-4h6.525ZM140.009 338.117a4 4 0 0 1 4 4v6.524a4 4 0 0 1-4 4h-6.525a4 4 0 0 1-4-4v-6.524a4 4 0 0 1 4-4h6.525ZM28.646 301a4 4 0 0 1 4 4v6.524a4 4 0 0 1-4 4h-6.525a4 4 0 0 1-4-4V305a4 4 0 0 1 4-4h6.526ZM65.767 301a4 4 0 0 1 4 4v6.524a4 4 0 0 1-4 4h-6.525a4 4 0 0 1-4-4V305a4 4 0 0 1 4-4h6.526ZM102.888 301a4 4 0 0 1 4 4v6.524a4 4 0 0 1-4 4h-6.525a4 4 0 0 1-4-4V305a4 4 0 0 1 4-4h6.525ZM140.009 301a4 4 0 0 1 4 4v6.524a4 4 0 0 1-4 4h-6.525a4 4 0 0 1-4-4V305a4 4 0 0 1 4-4h6.525ZM177.13 301a4 4 0 0 1 4 4v6.524a4 4 0 0 1-4 4h-6.525a4 4 0 0 1-4-4V305a4 4 0 0 1 4-4h6.525ZM635.647 37.117a4 4 0 0 1 4 4v6.524a4 4 0 0 1-4 4h-6.526a4 4 0 0 1-4-4v-6.524a4 4 0 0 1 4-4h6.526ZM672.768 37.117a4 4 0 0 1 4 4v6.524a4 4 0 0 1-4 4h-6.526a4 4 0 0 1-4-4v-6.524a4 4 0 0 1 4-4h6.526ZM709.888 37.117a4 4 0 0 1 4 4v6.524a4 4 0 0 1-4 4h-6.525a4 4 0 0 1-4-4v-6.524a4 4 0 0 1 4-4h6.525ZM747.009 37.117a4 4 0 0 1 4 4v6.524a4 4 0 0 1-4 4h-6.525a4 4 0 0 1-4-4v-6.524a4 4 0 0 1 4-4h6.525ZM598.526 37.117a4 4 0 0 1 4 4v6.524a4 4 0 0 1-4 4H592a4 4 0 0 1-4-4v-6.524a4 4 0 0 1 4-4h6.526ZM635.647 0a4 4 0 0 1 4 4v6.524a4 4 0 0 1-4 4h-6.526a4 4 0 0 1-4-4V4a4 4 0 0 1 4-4h6.526ZM672.768 0a4 4 0 0 1 4 4v6.524a4 4 0 0 1-4 4h-6.526a4 4 0 0 1-4-4V4a4 4 0 0 1 4-4h6.526ZM709.888 0a4 4 0 0 1 4 4v6.524a4 4 0 0 1-4 4h-6.525a4 4 0 0 1-4-4V4a4 4 0 0 1 4-4h6.525ZM747.009 0a4 4 0 0 1 4 4v6.524a4 4 0 0 1-4 4h-6.525a4 4 0 0 1-4-4V4a4 4 0 0 1 4-4h6.525ZM784.13 0a4 4 0 0 1 4 4v6.524a4 4 0 0 1-4 4h-6.525a4 4 0 0 1-4-4V4a4 4 0 0 1 4-4h6.525Z" clip-rule="evenodd"/>
</svg>
