<svg xmlns="http://www.w3.org/2000/svg" viewBox="0 0 286.69 195.79">
  <defs>
    <style>
      .cls-1{fill:none}.cls-2{fill:#10d4b0}.cls-3{fill:#f0e47a}.cls-4{fill:#fff}
    </style>
  </defs>
  <g id="contact">
    <path d="M193.59 143.59a2.23 2.23 0 102.23 2.23 2.23 2.23 0 00-2.23-2.23zM41.68 36.49a2.23 2.23 0 10-2.23-2.23 2.23 2.23 0 002.23 2.23z" class="cls-1"/>
    <path d="M41.68 38.49a4.23 4.23 0 10-4.23-4.23 4.23 4.23 0 004.23 4.23zm0-6.46a2.23 2.23 0 11-2.23 2.23A2.23 2.23 0 0141.68 32z" class="cls-2"/>
    <path d="M193.59 141.59a4.23 4.23 0 104.23 4.23 4.24 4.24 0 00-4.23-4.23zm0 6.46a2.23 2.23 0 112.23-2.23 2.23 2.23 0 01-2.23 2.23zM198.06 85.59a1.77 1.77 0 10-1.76-1.76 1.76 1.76 0 001.76 1.76z" class="cls-3"/>
    <circle cx="34.94" cy="145.81" r="1.76" class="cls-2"/>
    <path d="M162.79 190.5a1 1 0 00-1 1v3.29a1 1 0 002 0v-3.29a1 1 0 00-1-1zM162.79 182.8a1 1 0 00-1 1v3.3a1 1 0 002 0v-3.3a1 1 0 00-1-1zM168.3 188.4H165a1 1 0 000 2h3.29a1 1 0 000-2zM160.61 188.4h-3.3a1 1 0 000 2h3.3a1 1 0 000-2z" class="cls-2"/>
    <path d="M47.81 89.24a1 1 0 00-1 1v3.3a1 1 0 102 0v-3.3a1 1 0 00-1-1zM48.81 82.54a1 1 0 00-2 0v3.3a1 1 0 002 0zM50 87.15a1 1 0 000 2h3.3a1 1 0 100-2zM42.34 87.15a1 1 0 000 2h3.3a1 1 0 100-2zM110.28 47.78a1.25 1.25 0 00-1.19 1.31l.53 10.7a1.26 1.26 0 001.25 1.21h.06a1.25 1.25 0 001.19-1.31L111.59 49a1.24 1.24 0 00-1.31-1.22zM119 60.33a1.26 1.26 0 001.74-.35l3.64-5.55a1.25 1.25 0 10-2.08-1.37l-3.65 5.54a1.25 1.25 0 00.35 1.73zM97.06 54a1.26 1.26 0 00-.18 1.76l4.18 5.24a1.25 1.25 0 001 .47 1.25 1.25 0 001-2l-4.18-5.15a1.25 1.25 0 00-1.82-.32zM188.5 117.76l-1.27 1c-6.35 5.07-13.25 10.59-20.61 16.2l.18 3c7.87-6 15.25-11.87 22-17.26l1.27-1a438.73 438.73 0 0033-29.16l-.85-2.68a436.33 436.33 0 01-33.72 29.9z" class="cls-3"/>
    <path d="M43.81 182.51C25.23 180.62 15.2 169.25 10.06 160 .37 142.68.1 118.13 9.39 99 21.07 75.2 49 57.84 73.55 42.53 93.08 30.36 110 19.86 115.11 8.44a24.21 24.21 0 002.28-7 1.25 1.25 0 10-2.47-.37 21.93 21.93 0 01-2.07 6.31C108 18.14 91.41 28.46 72.22 40.4 47.34 55.9 19.14 73.45 7.14 97.86c-9.78 20.19-9.49 45.07.74 63.4C15.56 175 28.23 183.44 43.47 185a84.59 84.59 0 0015 1.31c17.85 0 35.75-5.31 52.91-13.35l-7.12.42c-19.79 8.36-40.34 12.72-60.45 9.13z" class="cls-3"/>
    <path d="M231.38 88.44l-1.08 11.85 6.64-7.63-5.56-4.22zM232.3 86l19.23 14.61 30.08-59.08L232.3 86zM221.08 76.5L276.26 43l3.24-2.93-75.78 25.38 17 10.71a1.37 1.37 0 01.36.34z" class="cls-4"/>
    <path d="M221.26 76.84L228 97.91l1.1-12a1.25 1.25 0 01.41-.81L276.26 43l-55.18 33.5a1.38 1.38 0 01.18.34z" class="cls-2"/>
    <path d="M286.39 35.94a1.27 1.27 0 00-1.35-.37l-84.61 28.34a1.26 1.26 0 00-.27 2.25L219 78l3.15 9.83.85 2.68 4.48 14a1.25 1.25 0 001.19.87h.13a1.25 1.25 0 001-.75l9.1-10.46 12.28 9.33a1.29 1.29 0 001 .22 1.26 1.26 0 00.84-.65l33.46-65.76a1.25 1.25 0 00-.09-1.37zm-6.89 4.12L276.26 43l-46.75 42.15a1.25 1.25 0 00-.41.81l-1.1 12-6.74-21.07a1.46 1.46 0 00-.52-.68l-17-10.71zm-48.12 48.38l5.56 4.22-6.64 7.63zm.92-2.44l49.31-44.46-30.07 59.08z"/>
    <path d="M71.32 118.62l-1-16.81-11.11 9.18 12.11 7.63zM150.3 113.76l11.12-8.87-12.11-7.76.99 16.63z" class="cls-2"/>
    <path d="M71.55 80.68l2.36 39.57 27.66 17.41 2.53-2.2a12.94 12.94 0 0114.85-.94l2.9 1.94 26.05-20.79-2.25-37.78-.11-1.61a12.71 12.71 0 013.85-10l-68.68 4.1a9.77 9.77 0 00-9.16 10.3zm55.08 10.49a1.25 1.25 0 01-1.18 1.32l-44.62 2.66h-.08a1.25 1.25 0 01-.07-2.5L125.3 90a1.26 1.26 0 011.33 1.17zm-15.3-7.81a1.25 1.25 0 01-1.17 1.32l-29.85 1.78h-.07a1.25 1.25 0 01-.08-2.5L110 82.18a1.25 1.25 0 011.33 1.18zM99.61 139.37l-41.14-25.89 3.5 58.61 37.64-32.72zM162.46 107.26l-38.42 30.65 41.92 28-3.5-58.65z" class="cls-4"/>
    <path d="M164.81 104.71a1.65 1.65 0 00-.06-.32v-.09l-.1-.2-.07-.09-.14-.15-.09-.07-.07-.06L149.13 94l-.44-7.34 16.53-1a3.24 3.24 0 003.05-3.43l-.44-7.34c-.4-6.7-5.73-11.89-11.83-11.52l-75.43 4.49a12.24 12.24 0 00-11.5 13l1.06 17.89-13.85 11.42-.06.06-.09.09-.11.16-.06.11a.68.68 0 00-.07.2v.09a1.22 1.22 0 000 .33l3.78 63.45a.17.17 0 010 .05 1.21 1.21 0 00.08.46 1.25 1.25 0 001.16.78h.07l43.27-2.58 7.12-.42 56.1-3.35a1.24 1.24 0 001.13-.92 1.18 1.18 0 000-.46.43.43 0 000-.05L166.8 138l-.18-3zm1-22.28a.76.76 0 01-.71.79l-16.5 1-.52-8.08c-.32-5.37 3.3-10 8.06-10.25s8.91 3.85 9.23 9.22zm-66.2 56.94L62 172.09l-3.5-58.61zm6.14-2a10 10 0 016.51-2.24 9.6 9.6 0 015.31 1.49l46 30.72-99.11 5.91zm18.29.56l38.42-30.65 3.5 58.65zm26.26-24.15l-1-16.63 12.11 7.76zm-4.75-37.49l.11 1.61 2.25 37.78-26 20.79-2.9-1.94a12.94 12.94 0 00-14.85.94l-2.53 2.2-27.71-17.42-2.36-39.57a9.77 9.77 0 019.16-10.32l68.68-4.1a12.71 12.71 0 00-3.85 10.01zm-74.23 42.33L59.21 111l11.11-9.18z"/>
    <path d="M163.57 167.32l-46-30.72a9.6 9.6 0 00-5.31-1.49 10 10 0 00-6.51 2.24l-41.29 35.88z" class="cls-4"/>
    <path d="M156.11 65.87c-4.76.28-8.38 4.88-8.06 10.25l.52 8.08 16.5-1a.76.76 0 00.71-.79l-.44-7.34c-.34-5.35-4.48-9.49-9.23-9.2z" class="cls-2"/>
    <path d="M79 85.28a1.25 1.25 0 001.25 1.18h.07l29.85-1.78a1.25 1.25 0 00-.15-2.5L80.17 84A1.25 1.25 0 0079 85.28z"/>
    <path d="M81.58 107.61l16.23-1a1.25 1.25 0 10-.15-2.49l-16.22 1a1.25 1.25 0 00.07 2.5zM106.81 118.58l-16.23 1a1.25 1.25 0 00.08 2.5h.07l16.23-1a1.25 1.25 0 10-.15-2.49zM111.69 110.8l-29.81 1.77a1.26 1.26 0 00-1.17 1.33 1.25 1.25 0 001.29 1.17l29.81-1.78a1.25 1.25 0 00-.15-2.49zM114.72 103.13l-9.71.58a1.25 1.25 0 00.08 2.5h.07l9.71-.58a1.25 1.25 0 00-.15-2.49zM128.14 109.82l-9.71.58a1.25 1.25 0 00.08 2.5h.07l9.71-.58a1.25 1.25 0 00-.15-2.5z" class="cls-2"/>
    <path d="M79.52 94a1.25 1.25 0 001.25 1.17h.07l44.62-2.66a1.25 1.25 0 10-.15-2.5l-44.62 2.64A1.25 1.25 0 0079.52 94z"/>
  </g>
</svg>
