<svg xmlns="http://www.w3.org/2000/svg" fill="currentColor" viewBox="0 0 24 24">
  <path fill-rule="evenodd" d="M2 0a2 2 0 0 0-2 2v20a2 2 0 0 0 2 2h20a2 2 0 0 0 2-2v-.901a5.046 5.046 0 0 1-.53.027c-1.82 0-2.996-.868-3.57-2.002l1.597-.924c.42.686.965 1.19 1.931 1.19.212 0 .404-.028.572-.079v-1.88a11.48 11.48 0 0 0-.67-.31l-.49-.21c-1.414-.601-2.352-1.357-2.352-2.953 0-1.47 1.12-2.59 2.87-2.59.226 0 .44.014.642.044V2a2 2 0 0 0-2-2H2Zm22 13.226a1.279 1.279 0 0 0-.642-.15c-.574 0-.938.364-.938.84 0 .588.364.826 1.204 1.19l.376.16v-2.04Zm-16.428 7.9c1.834 0 3.15-.812 3.976-2.1l-1.526-1.05c-.532.812-1.218 1.4-2.45 1.4-1.722 0-2.884-1.358-2.884-3.136s1.162-3.108 2.884-3.108c1.092 0 1.862.518 2.31 1.246l1.498-1.064c-.854-1.33-2.086-1.946-3.808-1.946-2.73 0-4.9 2.058-4.9 4.872s2.17 4.886 4.9 4.886Zm8.379 0c1.862 0 3.248-.966 3.248-2.73 0-1.638-.938-2.366-2.604-3.08l-.49-.21c-.84-.364-1.204-.602-1.204-1.19 0-.476.364-.84.938-.84.56 0 .924.238 1.26.84l1.526-.98c-.644-1.134-1.54-1.568-2.786-1.568-1.75 0-2.87 1.12-2.87 2.59 0 1.596.938 2.352 2.352 2.954l.49.21c.896.392 1.428.63 1.428 1.302 0 .56-.518.966-1.33.966-.966 0-1.512-.504-1.932-1.19l-1.596.924c.574 1.134 1.75 2.002 3.57 2.002Z" clip-rule="evenodd"/>
</svg>
