<svg xmlns="http://www.w3.org/2000/svg" fill="none" viewBox="0 0 890 392">
  <path fill="#E4F5F6" fill-rule="evenodd" d="M152.484 377.117a4 4 0 0 0-4 4v6.524a4 4 0 0 0 4 4h6.525a4 4 0 0 0 4-4v-6.524a4 4 0 0 0-4-4h-6.525ZM115.363 377.117a4 4 0 0 0-4 4v6.524a4 4 0 0 0 4 4h6.525a4 4 0 0 0 4-4v-6.524a4 4 0 0 0-4-4h-6.525ZM78.242 377.117a4 4 0 0 0-4 4v6.524a4 4 0 0 0 4 4h6.525a4 4 0 0 0 4-4v-6.524a4 4 0 0 0-4-4h-6.525ZM41.12 377.117a4 4 0 0 0-4 4v6.524a4 4 0 0 0 4 4h6.527a4 4 0 0 0 4-4v-6.524a4 4 0 0 0-4-4H41.12ZM189.605 377.117a4 4 0 0 0-4 4v6.524a4 4 0 0 0 4 4h6.525a4 4 0 0 0 4-4v-6.524a4 4 0 0 0-4-4h-6.525ZM152.484 340a4 4 0 0 0-4 4v6.524a4 4 0 0 0 4 4h6.525a4 4 0 0 0 4-4V344a4 4 0 0 0-4-4h-6.525ZM115.363 340a4 4 0 0 0-4 4v6.524a4 4 0 0 0 4 4h6.525a4 4 0 0 0 4-4V344a4 4 0 0 0-4-4h-6.525ZM78.242 340a4 4 0 0 0-4 4v6.524a4 4 0 0 0 4 4h6.525a4 4 0 0 0 4-4V344a4 4 0 0 0-4-4h-6.525ZM41.12 340a4 4 0 0 0-4 4v6.524a4 4 0 0 0 4 4h6.527a4 4 0 0 0 4-4V344a4 4 0 0 0-4-4H41.12ZM4 340a4 4 0 0 0-4 4v6.524a4 4 0 0 0 4 4h6.526a4 4 0 0 0 4-4V344a4 4 0 0 0-4-4H4ZM862.483 14.524a4 4 0 0 1-4-4V4a4 4 0 0 1 4-4h6.526a4 4 0 0 1 4 4v6.524a4 4 0 0 1-4 4h-6.526ZM825.363 14.524a4 4 0 0 1-4-4V4a4 4 0 0 1 4-4h6.525a4 4 0 0 1 4 4v6.524a4 4 0 0 1-4 4h-6.525ZM788.242 14.524a4 4 0 0 1-4-4V4a4 4 0 0 1 4-4h6.525a4 4 0 0 1 4 4v6.524a4 4 0 0 1-4 4h-6.525ZM751.121 14.524a4 4 0 0 1-4-4V4a4 4 0 0 1 4-4h6.525a4 4 0 0 1 4 4v6.524a4 4 0 0 1-4 4h-6.525ZM862.484 51.641a4 4 0 0 1-4-4v-6.524a4 4 0 0 1 4-4h6.525a4 4 0 0 1 4 4v6.524a4 4 0 0 1-4 4h-6.525ZM825.363 51.641a4 4 0 0 1-4-4v-6.524a4 4 0 0 1 4-4h6.525a4 4 0 0 1 4 4v6.524a4 4 0 0 1-4 4h-6.525ZM788.242 51.641a4 4 0 0 1-4-4v-6.524a4 4 0 0 1 4-4h6.525a4 4 0 0 1 4 4v6.524a4 4 0 0 1-4 4h-6.525ZM751.121 51.641a4 4 0 0 1-4-4v-6.524a4 4 0 0 1 4-4h6.525a4 4 0 0 1 4 4v6.524a4 4 0 0 1-4 4h-6.525ZM714 51.641a4 4 0 0 1-4-4v-6.524a4 4 0 0 1 4-4h6.525a4 4 0 0 1 4 4v6.524a4 4 0 0 1-4 4H714Z" clip-rule="evenodd"/>
  <path fill="#E4F5F6" d="M890 319H78a4 4 0 0 1-4-4V73a4 4 0 0 1 4-4h812v250Z"/>
</svg>
