<svg xmlns="http://www.w3.org/2000/svg" viewBox="0 0 125.71 132.89" fill="currentColor">
  <path d="M87.31 132.89a26.6 26.6 0 01-4.38-.36c-7.13-1.19-14.12-7.54-28-20.18-.35-.31-.41-.37-.82-.79-.61-.56-2.11-2.17-7.57-7.56l-.49-.49c-8.13-8-11.84-11.72-11.18-17A8.42 8.42 0 0138 80.75c2.73-2.08 6.12-1.61 8.57-.91l-.4-.52c-6.87-8.83-7.75-11.88-8-14.24-.21-1.64-.86-6.63 2.34-9.72 2.82-2.73 6.65-2.08 7.91-1.87a9.92 9.92 0 011.52.38 11 11 0 011.64.75 17.42 17.42 0 01-3-10.53 9.25 9.25 0 013-6.63c1.33-1.12 3.71-2.32 7.48-1.7s5.9 2.93 9.25 7.06a14.45 14.45 0 01.1-6.16c1-4.31 3.26-6.12 5-6.87 3.14-1.4 6.12 0 7.56.66a16.45 16.45 0 016.73 6c3.87 5.87 6.91 11.55 9.35 16.11l.9 1.69c1.15 2.13 2.23 4.1 3.3 6A19.94 19.94 0 01105 50a14.71 14.71 0 016.49-4.86c3.09-1.16 9.21-2.08 12.56 1.81 1.7 2 1.88 4.34 1.61 8a57.68 57.68 0 01-1.81 10.62 37 37 0 00-1.4 8.67 26.66 26.66 0 001.95 11.13l.12.3c3.45 9-1.66 21.49-2.25 22.88a41 41 0 01-12.61 15.92c-7.26 5.53-15.03 8.42-22.35 8.42zM42.69 85.24a1.78 1.78 0 00-1.11.29 2.65 2.65 0 00-.75 1.75c-.3 2.34 3.16 5.77 9.44 12l.49.48c5.47 5.42 7 7 7.62 7.62.28.28.31.33.55.54 12.64 11.48 19.6 17.8 25 18.7 9.3 1.55 17.8-3.67 22-6.92a35.41 35.41 0 0010.74-13.5c1.68-3.94 4.29-12.84 2.16-18.38l-.09-.26a32 32 0 01-1.87-6.47 32.87 32.87 0 01-.49-7 43.1 43.1 0 011.62-9.98 51.6 51.6 0 001.66-9.59c.15-2.15.09-3.4-.17-3.71-.79-.91-3.62-1-5.92-.1a8.82 8.82 0 00-3.86 2.94c-3.2 4.08-2.82 10.38-2.4 12.47a8.54 8.54 0 01.21 2.15c-.1 3.35-2.07 5.73-3.91 7.69a35.34 35.34 0 01-3.54 3.4 16 16 0 00-1.51 1.44A18.74 18.74 0 0094 92.15a20 20 0 001.06 8.2l-5.68 2A25.92 25.92 0 0188 91.66a24.84 24.84 0 016.08-14.9 19 19 0 012.06-2 32.81 32.81 0 003-2.93c.39-.42.73-.8 1-1.16-.62-1-1.36-2.29-2.18-3.7-1.83-3.15-3.58-6.29-5.51-9.88l-.91-1.7c-2.51-4.68-5.35-10-9.07-15.64a10.44 10.44 0 00-4.19-3.86c-.75-.35-2-.94-2.64-.65-.3.13-1 .67-1.57 2.8-.75 3.11.67 6.1 1.36 7.54a223.08 223.08 0 0012 21.46l-5 3.37c-.9-1.22-2.27-3.07-4-5.31-5.22-7.1-6.43-8.44-8.02-10.28-1.14-1.3-2.56-2.91-5.68-6.79l-.23-.27C61 43.38 59.77 42 58 41.68a3.21 3.21 0 00-2.64.38 3.84 3.84 0 00-.87 2.51c-.3 3.91 2.48 7.52 3.4 8.7 4.49 5.81 9.94 13.64 17.86 25.21l-4.43 4a60.62 60.62 0 01-4.77-4.54c-.68-.71-1.13-1.22-1.62-1.78s-1.19-1.35-2.35-2.56c-.47-.5-.86-.9-1.24-1.29-1-1.06-2-2.07-4.07-4.42-4.74-5.39-7.95-7.84-9.38-8.33a4.1 4.1 0 00-.57-.13c-.57-.1-2.09-.36-2.73.26-.39.37-1 1.47-.56 4.64.12.91.39 3 6.84 11.33a82.23 82.23 0 005.66 6.93l1.89 2.09c4.38 4.89 7.51 7.93 7.54 8l-3.62 4.73a25.29 25.29 0 01-2.1-1.43C58.8 94.86 58 94.2 58 94.2c-7.81-6.26-9.47-7.35-11.51-8.07a13.47 13.47 0 00-3.8-.89zM100.86 34.83a25.31 25.31 0 00-7.42-10 24.92 24.92 0 00-7.7-4.26l1.94-5.68a31 31 0 019.55 5.28 31.46 31.46 0 019.18 12.43zM116.75 32a46.1 46.1 0 00-10.51-15.37A46.6 46.6 0 0088 5.72L89.77 0a52.82 52.82 0 0120.64 12.26 52.07 52.07 0 0111.87 17.37zM29.84 111.3a41.06 41.06 0 01-13.65-22.65l5.87-1.28a34.91 34.91 0 0011.65 19.34zM25.54 125.8a52.74 52.74 0 01-16-14.2A53.45 53.45 0 010 89.8l5.89-1.12A47.36 47.36 0 0014.38 108a46.67 46.67 0 0014.16 12.6z"/>
</svg>