<svg xmlns="http://www.w3.org/2000/svg" fill="currentColor" viewBox="0 0 2346.79 917.67">
  <rect width="119.52" height="114.55" x="329.55" y="675.2" rx="6" transform="rotate(-45 389.31 732.472)"/>
  <rect width="142.11" height="136.2" x="1231.25" y="336.37" rx="6" transform="rotate(-45 1302.297 404.47)"/>
  <rect width="94.49" height="90.57" x="927.94" y="742.39" rx="6" transform="rotate(-45 975.194 787.671)"/>
  <rect width="51.75" height="49.6" x="668.42" y="8.55" rx="6" transform="rotate(-45 694.295 33.353)"/>
  <rect width="68.04" height="65.21" x="1197.1" y="168.06" rx="6" transform="rotate(-45 1231.11 200.668)"/>
  <rect width="93.62" height="62.66" x="1488.29" y="296.8" rx="6" transform="rotate(-45 1535.1 328.14)"/>
  <rect width="68.04" height="65.21" x="451.25" y="803.91" rx="6" transform="rotate(-45 485.275 836.513)"/>
  <rect width="61.43" height="58.87" x="1538.51" y="807.24" rx="6" transform="rotate(-45 1569.226 836.685)"/>
  <rect width="28.44" height="27.26" x="1290.89" y="112.64" rx="6" transform="rotate(-45 1305.102 126.269)"/>
  <rect width="28.44" height="27.26" x="1885.71" y="7.62" rx="6" transform="rotate(-45 1899.955 21.233)"/>
  <rect width="28.44" height="27.26" x="1489.42" y="866.55" rx="6" transform="rotate(-45 1503.634 880.184)"/>
  <rect width="38.34" height="36.75" x="1956.24" y="784.7" rx="6" transform="rotate(-45 1975.394 803.075)"/>
  <path d="M2175 545.25l83.86-83.5a6 6 0 000-8.49l-92.35-92.36a6 6 0 010-8.49l24.58-24.48a6 6 0 000-8.49l-93.91-93.92a6 6 0 00-8.47 0L2064.14 250a6 6 0 01-8.48 0l-177-177a6 6 0 00-8.47 0l-55.47 55.23a6 6 0 01-8.48 0l-31.72-31.72a6 6 0 00-8.6.11L1596 276a6 6 0 00.11 8.37l26.54 26.54a6 6 0 010 8.5l-96.68 96.27a6 6 0 01-8.48 0l-27.27-27.28a6 6 0 00-8.49 0l-178.5 178.47a6 6 0 01-8.49 0L1134.4 406.53a6 6 0 010-8.49l92.26-92.26a6 6 0 000-8.49l-90.85-90.86a6 6 0 00-8.49 0L920.72 413a6 6 0 01-8.49 0L740.3 241.11a6 6 0 00-8.48 0l-93.11 93.1a6 6 0 01-8.48 0l-52.82-52.82a6 6 0 010-8.49l134.32-134.32a6 6 0 000-8.49l-90.86-90.86a6 6 0 00-8.48 0L434.45 217.17a6 6 0 01-8.49 0l-38.58-38.58a6 6 0 00-8.49 0L1.76 555.72a6 6 0 000 8.49l45 45 92.92 92.92a6 6 0 008.49 0l27.91-27.91a6 6 0 018.48 0l54 54a6 6 0 008.49 0l141.78-141.77a6 6 0 018.48 0l320.2 320.19a6 6 0 008.49 0l249.52-249.52a6 6 0 018.48 0l119.48 119.48a6 6 0 008.43 0l35.3-34.48a6 6 0 018.43.05l65.55 65.54a6 6 0 008.48 0l63.93-63.92a6 6 0 018.49 0l133.43 133.43a6 6 0 008.48 0l151.58-151.58a6 6 0 018.48 0l30.6 30.6a6 6 0 008.48 0l90.22-89.84a6 6 0 018.48 0l40.76 40.77a6 6 0 010 8.49l-90.18 89.8a6 6 0 000 8.5l101.89 101.88a6 6 0 008.47 0l171.72-171a6 6 0 018.48 0l170.43 170.44a6 6 0 008.49 0L2345 732.23a6 6 0 000-8.48l-170-170a6 6 0 010-8.5z" />
</svg>
