<svg xmlns="http://www.w3.org/2000/svg" viewBox="0 0 351.6 328.84">
  <defs>
    <style>
      .hero-yellow {fill:#f0e47a}
      .hero-bg-accent {fill:#393954}
      .hero-white {fill:#fff}
      .hero-cyan {fill:#10d4b0}
    </style>
  </defs>
  <path d="M271.38 201.65l-1-2.28c34.19-15.29 56.72-43.69 57.4-72.37.86-36.25-32.23-69.56-63.66-77.92C224.68 38.59 175 63.28 127 87.16c-33.15 16.48-64.46 32.06-89.46 34.09-6.12.5-22.36 1.83-31.32-8.19-8.6-9.61-6-24.86-5.42-27.82C4.62 66.64 23.25 56.2 41 48.43l1 2.29c-17.13 7.51-35.13 17.54-38.69 35-.56 2.75-3 16.93 4.84 25.66 8.12 9.08 23.47 7.83 29.25 7.36 24.52-2 55.62-17.46 88.54-33.84 48.43-24.09 98.5-49 138.83-38.26 16.83 4.48 33.55 15.37 45.87 29.87 13.08 15.4 20.05 33.34 19.65 50.53-.74 29.65-23.85 58.96-58.91 74.61z" class="hero-yellow"/>
  <path d="M28 204a.5.5 0 01.5.5v20.65a.51.51 0 01-.5.5H7.33a.5.5 0 01-.5-.5V204.5a.5.5 0 01.5-.5H28m0-2.5H7.33a3 3 0 00-3 3v20.65a3 3 0 003 3H28a3 3 0 003-3V204.5a3 3 0 00-3-3zM28.17 169.59h-21a2.8 2.8 0 00-2.8 2.8v21a2.8 2.8 0 002.8 2.8h21a2.8 2.8 0 002.81-2.8v-21a2.8 2.8 0 00-2.81-2.8zm-1.79 8.75l-10 11.31a1.64 1.64 0 01-1.23.55 1.62 1.62 0 01-1.22-.55l-5-5.66a1.63 1.63 0 112.45-2.16l3.77 4.26 8.78-9.92a1.64 1.64 0 012.45 2.17zM28.17 137.67h-21a2.81 2.81 0 00-2.8 2.81v21a2.81 2.81 0 002.8 2.81h21a2.81 2.81 0 002.83-2.78v-21a2.81 2.81 0 00-2.83-2.84zm-1.79 8.76l-10 11.3a1.62 1.62 0 01-1.23.56 1.6 1.6 0 01-1.22-.56l-5-5.65a1.64 1.64 0 012.45-2.17l3.77 4.27 8.78-9.92a1.64 1.64 0 012.45 2.17z" class="hero-bg-accent"/>
  <rect width="58.73" height="26.65" x="36.24" y="137.67" class="hero-bg-accent" rx="3"/>
  <rect width="58.73" height="26.65" x="36.24" y="169.59" class="hero-bg-accent" rx="3"/>
  <rect width="58.73" height="26.65" x="36.24" y="201.5" class="hero-bg-accent" rx="3"/>
  <path d="M297.36 234.72l-2.95-.5a.82.82 0 01-.64-.54 19.41 19.41 0 00-1-2.45.8.8 0 01.07-.83l1.74-2.43a3 3 0 00-.33-3.9l-3.05-3a3 3 0 00-3.89-.33l-2.44 1.74a.82.82 0 01-.84.06 19.1 19.1 0 00-2.56-1.05.82.82 0 01-.55-.64l-.49-2.9a3 3 0 00-3-2.53h-4.31a3 3 0 00-3 2.53l-.51 3a.84.84 0 01-.54.64 17.83 17.83 0 00-2.43 1 .82.82 0 01-.85-.07l-2.4-1.73a3 3 0 00-3.9.33l-3.06 3a3 3 0 00-.33 3.9l1.76 2.47a.82.82 0 01.07.83 20 20 0 00-1 2.45.8.8 0 01-.64.55l-2.9.49a3 3 0 00-2.53 3v4.31a3 3 0 002.53 3l3 .51a.81.81 0 01.64.54 18.38 18.38 0 001 2.43.82.82 0 01-.06.84l-1.73 2.4a3 3 0 00.33 3.9l3 3a3 3 0 002.14.89 3 3 0 001.75-.57l2.47-1.76a.82.82 0 01.84-.06 19.15 19.15 0 002.34 1 .81.81 0 01.54.64l.49 2.95a3 3 0 003 2.52h4.32a3 3 0 003-2.52l.5-2.95a.81.81 0 01.54-.64 19.27 19.27 0 002.44-1 .8.8 0 01.84.07l2.43 1.73a3 3 0 003.9-.32l3.05-3a3 3 0 00.33-3.9l-1.74-2.44a.82.82 0 01-.07-.84 19.9 19.9 0 001-2.44.83.83 0 01.64-.55l2.95-.49a3 3 0 002.53-3v-4.31a3 3 0 00-2.44-3.03zm-22 11.49a6.33 6.33 0 116.3-6.33 6.31 6.31 0 01-6.27 6.33zM305.41 278.15l-1.55-.82a.47.47 0 01-.25-.41 9.89 9.89 0 00-.12-1.54.49.49 0 01.19-.45l1.41-1a1.76 1.76 0 00.52-2.22l-1.13-2.24a1.78 1.78 0 00-1-.89 1.81 1.81 0 00-1.08 0l-1.66.52a.48.48 0 01-.48-.12 10.32 10.32 0 00-1.26-1.08.46.46 0 01-.18-.45l.25-1.7a1.76 1.76 0 00-1.19-1.94l-2.38-.81a1.75 1.75 0 00-2.11.86l-.83 1.56a.48.48 0 01-.42.25 11.28 11.28 0 00-1.53.13.47.47 0 01-.45-.19l-1-1.4a1.82 1.82 0 00-.88-.63 1.74 1.74 0 00-1.34.11l-2.25 1.13a1.76 1.76 0 00-.89 2.1l.53 1.69a.45.45 0 01-.12.47 11 11 0 00-1 1.18.51.51 0 01-.46.19l-1.69-.26a1.77 1.77 0 00-1.95 1.2l-.78 2.38a1.76 1.76 0 00.86 2.12l1.56.82a.5.5 0 01.26.42 11.26 11.26 0 00.12 1.53.46.46 0 01-.19.46l-1.39 1a1.76 1.76 0 00-.52 2.22l1.13 2.24a1.74 1.74 0 002.1.89l1.69-.52a.46.46 0 01.47.11 12.87 12.87 0 001.12 1 .49.49 0 01.19.45l-.27 1.72a1.77 1.77 0 001.2 1.95l2.34.82a1.77 1.77 0 002.12-.86l.81-1.54a.49.49 0 01.42-.26 11.25 11.25 0 001.53-.11.46.46 0 01.45.19l1 1.4a1.78 1.78 0 002.22.53l2.25-1.14a1.78 1.78 0 00.89-2.1l-.52-1.67a.46.46 0 01.11-.47 11 11 0 001-1.17.48.48 0 01.46-.18l1.72.26a1.77 1.77 0 001.94-1.2l.78-2.38a1.74 1.74 0 00-.77-2.15zm-14.26 2.37a3.69 3.69 0 114.64-2.36 3.68 3.68 0 01-4.64 2.36z" class="hero-bg-accent"/>
  <rect width="222.92" height="137.35" x="47.95" y="148.19" class="hero-white" rx="8"/>
  <path d="M262.87 286.79H56a9.26 9.26 0 01-9.25-9.25V156.19a9.26 9.26 0 019.25-9.25h206.87a9.26 9.26 0 019.25 9.25v121.35a9.26 9.26 0 01-9.25 9.25zM56 149.44a6.76 6.76 0 00-6.75 6.75v121.35a6.76 6.76 0 006.75 6.75h206.87a6.76 6.76 0 006.75-6.75V156.19a6.76 6.76 0 00-6.75-6.75z"/>
  <path d="M258.65 277.18H60.17a2.25 2.25 0 01-2.25-2.25V158.81a2.25 2.25 0 012.25-2.25h198.48a2.25 2.25 0 012.25 2.25v116.12a2.25 2.25 0 01-2.25 2.25zm-198.23-2.5h198V159.06h-198z"/>
  <path d="M306.27 320.08l-3.74 6.43a3 3 0 01-2.41 1.08H18.36a3 3 0 01-2.4-1.08l-3.41-6.43" class="hero-white"/>
  <path d="M300.12 328.84H18.36a4.21 4.21 0 01-3.42-1.6l-.09-.14-3.4-6.44 2.21-1.17 3.34 6.35a1.84 1.84 0 001.35.5h281.77a1.82 1.82 0 001.37-.52l3.7-6.37 2.16 1.26-3.8 6.53a4.25 4.25 0 01-3.43 1.6z"/>
  <path d="M270.58 285.54H50a2.82 2.82 0 00-1.84.69l-35 30.52a2.81 2.81 0 001.84 4.92h288.46a2.8 2.8 0 001.9-4.86l-32.87-30.52a2.82 2.82 0 00-1.91-.75z" class="hero-white"/>
  <path d="M303.46 322.92H15.07a4.05 4.05 0 01-2.66-7.11l35-30.52a4 4 0 012.66-1h220.51a4.09 4.09 0 012.76 1.08l32.88 30.52a4.06 4.06 0 01-2.76 7zM50 286.79a1.57 1.57 0 00-1 .38l-35 30.52a1.52 1.52 0 00-.43 1.72 1.51 1.51 0 001.45 1h288.44a1.56 1.56 0 001.05-2.7l-32.87-30.51a1.56 1.56 0 00-1.06-.42z"/>
  <path d="M252.69 311.29H66.13a2.2 2.2 0 01-2-1.38 2.47 2.47 0 01.47-2.67l15.62-16.29a2.14 2.14 0 011.56-.68h155.86a2.16 2.16 0 011.59.71l15.05 16.33a2.47 2.47 0 01.43 2.65 2.2 2.2 0 01-2.02 1.33zm-186.14-2.53h185.74l-14.81-16.05H81.9z"/>
  <path d="M243.56 176.15h-12.5a1.25 1.25 0 010-2.5h12.5a1.25 1.25 0 010 2.5zM221.9 176.15h-12.51a1.25 1.25 0 010-2.5h12.51a1.25 1.25 0 010 2.5zM200.23 176.15h-12.51a1.25 1.25 0 010-2.5h12.51a1.25 1.25 0 010 2.5zM105.52 237.62H84.43a3.26 3.26 0 01-3.25-3.25v-4.31a3.26 3.26 0 013.25-3.25h21.09a3.26 3.26 0 013.25 3.25v4.31a3.26 3.26 0 01-3.25 3.25zm-21.09-8.31a.76.76 0 00-.75.75v4.31a.76.76 0 00.75.75h21.09a.76.76 0 00.75-.75v-4.31a.76.76 0 00-.75-.75z" class="hero-cyan"/>
  <path d="M117.69 206.42H82.47a1.25 1.25 0 010-2.5h35.22a1.25 1.25 0 110 2.5zM132.39 216.35H82.47a1.25 1.25 0 010-2.5h49.92a1.25 1.25 0 010 2.5z"/>
  <path d="M75 176.15a1.12 1.12 0 01-.48-.1 1.09 1.09 0 01-.4-.27 1.05 1.05 0 01-.27-.4 1.27 1.27 0 01-.08-.23 1.1 1.1 0 010-.25 1 1 0 01.1-.48.76.76 0 01.11-.22.7.7 0 01.16-.19 1.24 1.24 0 011.12-.34l.23.07a.94.94 0 01.22.12.9.9 0 01.19.15 1.24 1.24 0 01.37.89 1.13 1.13 0 010 .25 1.19 1.19 0 01-.07.23 1.39 1.39 0 01-.11.21 1 1 0 01-.16.19 1.22 1.22 0 01-.93.37zM95 176.15H82.47a1.25 1.25 0 010-2.5H95a1.25 1.25 0 010 2.5z" class="hero-cyan"/>
  <rect width="76.09" height="54.02" x="159.35" y="193.85" class="hero-white" rx="1"/>
  <circle cx="175.11" cy="208.7" r="5.33" class="hero-cyan"/>
  <path d="M234.44 249.12h-74.09a2.25 2.25 0 01-2.25-2.25v-52a2.25 2.25 0 012.25-2.25h74.09a2.25 2.25 0 012.25 2.25v52a2.25 2.25 0 01-2.25 2.25zm-73.84-2.5h73.59V195.1H160.6z"/>
  <path d="M217.87 200.72l-19.38 27.17a.93.93 0 01-1.52 0l-8.32-11.65a.94.94 0 00-1.52 0l-17.34 24.3a.94.94 0 00.76 1.48H247a.94.94 0 00.77-1.48l-28.41-39.82a.94.94 0 00-1.49 0z" class="hero-cyan"/>
  <rect width="40.34" height="68.87" x="36.95" y="2.16" class="hero-white" rx="1" transform="rotate(2.85 57.023 36.593)"/>
  <path d="M74.61 73.19h-.11l-38.3-1.9a2.26 2.26 0 01-2.14-2.36l3.33-66.79A2.24 2.24 0 0139.74 0L78 1.91a2.24 2.24 0 012.14 2.36l-3.29 66.79a2.23 2.23 0 01-2.24 2.13zm0-2.5zM36.57 68.8l37.8 1.88 3.3-66.29-37.8-1.88z"/>
  <path d="M54.54 43.14h2.5v40.34h-2.5z" transform="rotate(-87.15 55.796 63.31)"/>
  <path d="M57.2-10.29h2.5v40.34h-2.5z" transform="rotate(-87.15 58.454 9.88)"/>
  <rect width="38.24" height="24.56" x="49.89" y="20.09" class="hero-white" rx="1" transform="rotate(-2.34 69.139 32.517)"/>
  <path d="M51.37 46.63a2.26 2.26 0 01-2.25-2.16l-.92-22.54a2.24 2.24 0 012.15-2.34l36.21-1.48h.09a2.26 2.26 0 012.25 2.16l.92 22.54a2.18 2.18 0 01-.59 1.61 2.23 2.23 0 01-1.56.73l-36.21 1.48zm-.67-24.55l.9 22 35.72-1.46-.91-22zm36.86 20.57z"/>
  <path d="M65.19 29.52a1.25 1.25 0 010-2.5l14.57-.6a1.28 1.28 0 011.3 1.2 1.24 1.24 0 01-1.2 1.3l-14.56.6zM65.76 35.38a1.26 1.26 0 01-.88-.37 1.25 1.25 0 111.76-1.78 1.26 1.26 0 010 1.78 1.26 1.26 0 01-.88.37zM71 35.21a1.25 1.25 0 01-.05-2.5l9-.37a1.25 1.25 0 11.1 2.5l-9 .36z" class="hero-cyan"/>
  <rect width="145.49" height="90.15" x="177.28" y="20.91" class="hero-white" rx="8"/>
  <path d="M251.2 49.38H233a1.25 1.25 0 010-2.5h18.2a1.25 1.25 0 010 2.5zM251.39 78.6H233a1.25 1.25 0 010-2.5h18.37a1.25 1.25 0 010 2.5zM286.25 58.81H251a1.25 1.25 0 010-2.5h35.23a1.25 1.25 0 010 2.5zM310.35 58.81H295.1a1.25 1.25 0 010-2.5h15.25a1.25 1.25 0 010 2.5zM272.55 49.38h-12.5a1.25 1.25 0 010-2.5h12.5a1.25 1.25 0 010 2.5zM273.41 78.6H260.9a1.25 1.25 0 010-2.5h12.51a1.25 1.25 0 010 2.5zM291 49.38h-9.6a1.25 1.25 0 010-2.5h9.6a1.25 1.25 0 010 2.5zM268.64 68.24H251.2a1.25 1.25 0 010-2.5h17.44a1.25 1.25 0 010 2.5zM223.47 54a1.24 1.24 0 01-.82-.31l-4.93-4.3a1.24 1.24 0 01-.42-.9 1.18 1.18 0 01.36-.92l4.93-5a1.25 1.25 0 111.77 1.77l-4 4 3.93 3.42a1.25 1.25 0 01.12 1.76 1.28 1.28 0 01-.94.48zM282.92 83.22a1.25 1.25 0 01-.88-2.13l4-4-3.93-3.42a1.25 1.25 0 011.65-1.89l4.93 4.3a1.29 1.29 0 01.43.9 1.25 1.25 0 01-.37.93l-4.93 4.94a1.25 1.25 0 01-.9.37zM177.87 31.89h31v78.3h-25.11a5.88 5.88 0 01-5.88-5.88V31.89h-.01z" class="hero-cyan"/>
  <path d="M200.43 40.56h-15.52a1.25 1.25 0 010-2.5h15.52a1.25 1.25 0 010 2.5zM193.36 47.62h-8.45a1.25 1.25 0 010-2.5h8.45a1.25 1.25 0 010 2.5zM196.5 54.69h-11.59a1.25 1.25 0 010-2.5h11.59a1.25 1.25 0 010 2.5zM200.43 65.4h-15.52a1.25 1.25 0 110-2.5h15.52a1.25 1.25 0 010 2.5zM193.36 72.47h-8.45a1.25 1.25 0 010-2.5h8.45a1.25 1.25 0 010 2.5zM196.5 79.53h-11.59a1.25 1.25 0 010-2.5h11.59a1.25 1.25 0 010 2.5z" class="hero-white"/>
  <path d="M314.76 112.3H185.28a9.26 9.26 0 01-9.25-9.25V28.91a9.26 9.26 0 019.25-9.25h129.48a9.25 9.25 0 019.24 9.25v74.14a9.25 9.25 0 01-9.24 9.25zM185.28 22.16a6.75 6.75 0 00-6.75 6.75v74.14a6.75 6.75 0 006.75 6.75h129.48a6.75 6.75 0 006.75-6.75V28.91a6.75 6.75 0 00-6.75-6.75z"/>
  <path d="M177.28 29.89h145.49v2.5H177.28z"/>
  <path d="M342.44 121.37a4.32 4.32 0 001.52-3.06l1.12-22.41a4.77 4.77 0 00-4.73-4.79l-14.54-.72a3.51 3.51 0 01-2.34-1l-3.72-3.8a3.49 3.49 0 00-2.34-1L305.94 84a4.76 4.76 0 00-5.18 4.29l-1.38 27.84a4.23 4.23 0 00.72 2.58" class="hero-white"/>
  <path d="M343.26 122.32l-1.64-1.89a3.1 3.1 0 001.09-2.18l1.12-22.42a3.52 3.52 0 00-3.54-3.47l-14.54-.72a4.76 4.76 0 01-3.17-1.4l-3.73-3.81a2.25 2.25 0 00-1.5-.65l-11.48-.57a3.84 3.84 0 00-2.7.87 3 3 0 00-1.17 2.23l-1.39 27.84a3 3 0 00.52 1.83l-2.09 1.38a5.5 5.5 0 01-.92-3.33l1.38-27.85a5.58 5.58 0 012.06-4 6.4 6.4 0 014.44-1.47l11.47.57a4.76 4.76 0 013.17 1.4l3.73 3.81a2.27 2.27 0 001.5.65l14.54.73a6 6 0 015.92 6.13l-1.12 22.41a5.56 5.56 0 01-1.95 3.91z"/>
  <path d="M301.28 120.34a5.59 5.59 0 003.26 1.25l36.69 1.83a4.34 4.34 0 004.57-3l4.4-15.51c.82-2.88-1.71-6-5-6.11L308.49 97a4.36 4.36 0 00-4.58 3l-4.4 15.51a4.68 4.68 0 001.77 4.86" class="hero-white"/>
  <path d="M341.49 124.67h-.33l-36.68-1.83a7 7 0 01-4-1.52 6 6 0 01-2.18-6.18l4.4-15.51a5.63 5.63 0 015.84-3.91l36.68 1.83a6.89 6.89 0 015.24 2.84 5.68 5.68 0 01.93 4.86L347 120.76a5.58 5.58 0 01-5.51 3.91zm-33.27-26.46a3.08 3.08 0 00-3.11 2.1l-4.4 15.51a3.48 3.48 0 001.35 3.55 4.42 4.42 0 002.55 1l36.68 1.83a3.15 3.15 0 003.31-2.09l4.4-15.51a3.18 3.18 0 00-.56-2.72 4.39 4.39 0 00-3.33-1.81l-36.69-1.82z"/>
  <path d="M311.57 207.68a4.23 4.23 0 114.23-4.23 4.23 4.23 0 01-4.23 4.23zm0-6.46a2.23 2.23 0 102.23 2.23 2.23 2.23 0 00-2.23-2.23z" class="hero-cyan"/>
  <path d="M115 69.84a4.24 4.24 0 114.23-4.23 4.24 4.24 0 01-4.23 4.23zm0-6.47a2.24 2.24 0 102.23 2.24 2.24 2.24 0 00-2.23-2.24z" class="hero-yellow"/>
  <circle cx="307.55" cy="138.59" r="1.76" class="hero-yellow"/>
  <circle cx="18.41" cy="37.47" r="1.76" class="hero-cyan"/>
  <path d="M153.64 108a1 1 0 01-1-1v-3.3a1 1 0 112 0v3.3a1 1 0 01-1 1zM153.64 100.26a1 1 0 01-1-1V96a1 1 0 112 0v3.3a1 1 0 01-1 .96zM159.16 102.56h-3.3a1 1 0 010-2h3.3a1 1 0 110 2zM151.47 102.56h-3.3a1 1 0 010-2h3.3a1 1 0 010 2z" class="hero-cyan"/>
  <path d="M344.89 73.56a1 1 0 01-1-1v-3.3a1 1 0 112 0v3.3a1 1 0 01-1 1zM344.89 65.86a1 1 0 01-1-1v-3.3a1 1 0 012 0v3.3a1 1 0 01-1 1zM350.41 68.17h-3.3a1 1 0 010-2h3.3a1 1 0 010 2zM342.72 68.17h-3.3a1 1 0 010-2h3.3a1 1 0 010 2z" class="hero-yellow"/>
</svg>
