<svg xmlns="http://www.w3.org/2000/svg" fill="currentColor" viewBox="0 0 110.3 126.44">
  <defs>
    <style>
      .cls-1{fill:none}
    </style>
  </defs>
  <path d="M8.44 72.48l37.71 37.72h.05L30 72.45H8.46l-.02.03z" class="cls-1"/>
  <path d="M72.26 66.38L55.18 43.6 38 66.38v.05h34.24l.02-.05z" class="cls-1"/>
  <path d="M49.09 41.57H25.78L7.18 66.38v.05h23.31l18.61-24.8-.01-.06z" class="cls-1"/>
  <path d="M61.19 41.62l18.6 24.8h23.31v-.05L84.52 41.58H61.21l-.02.04z" class="cls-1"/>
  <path d="M36.57 72.47l18.56 43.29 18.6-43.29H36.6s-.04-.02-.03 0z" class="cls-1"/>
  <path d="M64.15 110.2l37.72-37.72H80.3l-16.19 37.68s.02.06.04.04z" class="cls-1"/>
  <path d="M108.55 63.61L88.41 36.77a3 3 0 00-2.4-1.2H24.29a3 3 0 00-2.4 1.2L1.76 63.61a8.79 8.79 0 00.82 11.5L53 125.56a2.72 2.72 0 00.42.34 2.88 2.88 0 00.46.24l.15.06.36.11h.15a3.05 3.05 0 00.52 0 3 3 0 00.52 0h.15l.37-.11.15-.06a4 4 0 00.46-.24 3 3 0 00.43-.35L107.6 75.1a8.81 8.81 0 00.95-11.49zm-82.35-22h21.3a.82.82 0 01.66 1.32L30.75 66.1a.81.81 0 01-.66.33H8.79a.83.83 0 01-.66-1.32L25.54 41.9a.82.82 0 01.66-.33zm29.61 2.88l15.5 20.66a.82.82 0 01-.66 1.32h-31a.82.82 0 01-.65-1.36l15.49-20.66a.83.83 0 011.32 0zm-45.43 28h19.1a.83.83 0 01.76.5l14.33 33.44a.82.82 0 01-1.34.9L9.79 73.84a.83.83 0 01.59-1.41zm44 41.63L37.05 73.58a.82.82 0 01.76-1.15H72.5a.83.83 0 01.76 1.15l-17.35 40.48a.83.83 0 01-1.52 0zm11.34-7.69l14.34-33.5a.83.83 0 01.76-.5h19.11a.83.83 0 01.58 1.41l-33.43 33.43a.83.83 0 01-1.35-.9zM79.55 66.1L62.14 42.89a.83.83 0 01.66-1.32h21.3a.81.81 0 01.66.33l17.41 23.21a.82.82 0 01-.66 1.32h-21.3a.82.82 0 01-.66-.33z"/>
  <path d="M55.29 21.43a3.12 3.12 0 002.86-3.19V3.2A3.13 3.13 0 0055.29 0a3 3 0 00-3.14 3v15.43a3 3 0 003.14 3z"/>
  <path d="M78.13 26.15a3 3 0 002.12-.88l7.58-7.58a3.12 3.12 0 00.23-4.28 3 3 0 00-4.34-.1l-7.58 7.59a3.12 3.12 0 00-.27 4.22 3 3 0 002.26 1.03z"/>
  <path d="M29.72 25.27a3 3 0 004.38-.15 3.12 3.12 0 00-.27-4.22l-7.51-7.51a3 3 0 00-3.54-.64 3 3 0 00-.78 4.81z"/>
</svg>