<svg xmlns="http://www.w3.org/2000/svg" fill="currentColor" viewBox="0 0 23 23">
  <path d="m22.936 22.308-4.584-7.574C25.514 10.548 22.417.125 14.103 0H.473a.477.477 0 0 0-.327.14.453.453 0 0 0-.132.325v22.083c0 .122.05.238.139.323a.477.477 0 0 0 .332.134h2.327a.475.475 0 0 0 .417-.255l8.034-14.755 3.178 5.277h-.165l-4.602-.062a.483.483 0 0 0-.412.237.453.453 0 0 0 .009.465L15 22.783a.462.462 0 0 0 .398.214h7.128a.481.481 0 0 0 .408-.23.45.45 0 0 0 0-.459Zm-9.364-6.504a9.743 9.743 0 0 0 2.314-.148l2.905 4.801h-2.214l-3.005-4.653Zm3.458-3.255L11.556 3.51a.464.464 0 0 0-.41-.217.478.478 0 0 0-.399.235L2.606 18.456V2.54H14.15c1.51.009 2.956.6 4.021 1.644 2.555 2.407 1.916 6.69-1.141 8.365Z"/>
</svg>
