<svg xmlns="http://www.w3.org/2000/svg" viewBox="0 0 84.62 89.89" fill="currentColor">
  <path d="M67.41 58.03a30.54 30.54 0 0017.21-27.56C84.62 13.69 71.32.04 54.97.04H9.41A9.43 9.43 0 00-.01 9.45v75.2a5.29 5.29 0 005.29 5.28h1.19a5.26 5.26 0 004.71-2.89l28.06-55.31a2.27 2.27 0 014-.09L55.3 52.86h-6.73a8.16 8.16 0 00-6.91 12.51L54.9 86.14a8.06 8.06 0 006.83 3.75h12.12a6.81 6.81 0 005.92-10.18zm3.31 23.25a1.22 1.22 0 01-1.06.61h-6.25a3.18 3.18 0 01-2.7-1.48L49.98 63.54a1.74 1.74 0 011.43-2.69h3.52a29.21 29.21 0 004.71-.38l11.13 19.59a1.23 1.23 0 01-.01 1.22zm-62.1-6.89a.33.33 0 01-.62-.15v-62A4.25 4.25 0 0112.25 8h42.72c11.94 0 21.65 10.06 21.65 22.47a22.39 22.39 0 01-13.14 20.59L48.01 23.85a7.9 7.9 0 00-13.91.33z"/>
</svg>