<svg xmlns="http://www.w3.org/2000/svg" fill="none" viewBox="0 0 137 24">
  <path fill="#142850" d="M35.17 19V5.86h4.23c.924 0 1.728.162 2.412.486.696.324 1.23.792 1.602 1.404.384.6.576 1.302.576 2.106 0 .852-.21 1.614-.63 2.286a3.53 3.53 0 0 1-1.674 1.458L44.17 19h-2.934l-2.124-4.968h-1.26V19H35.17Zm4.23-7.308c.6 0 1.062-.15 1.386-.45.336-.3.504-.72.504-1.26 0-.564-.168-1.002-.504-1.314-.336-.312-.798-.468-1.386-.468h-1.548v3.492H39.4ZM47.797 19h-2.754l3.222-13.14h3.42L54.943 19h-2.754l-.63-2.97h-3.132l-.63 2.97Zm1.08-5.13h2.214l-.63-3.168-.468-2.412c-.144.804-.294 1.602-.45 2.394l-.666 3.186Zm11.169 5.328c-1.38 0-2.478-.372-3.294-1.116-.804-.744-1.206-1.758-1.206-3.042h2.7c0 .564.162 1.008.486 1.332.324.324.762.486 1.314.486s.99-.156 1.314-.468c.324-.324.486-.762.486-1.314V8.38h-2.97V5.86h5.67v9.216c0 1.272-.408 2.28-1.224 3.024-.804.732-1.896 1.098-3.276 1.098ZM68.983 19h-2.754L69.45 5.86h3.42L76.129 19h-2.754l-.63-2.97h-3.132l-.63 2.97Zm1.08-5.13h2.214l-.63-3.168-.468-2.412c-.144.804-.294 1.602-.45 2.394l-.666 3.186ZM86.092 19h-8.01V5.86h2.7v10.62h5.31V19Zm4.077 0h-2.754l3.222-13.14h3.42L97.315 19H94.56l-.63-2.97h-3.132l-.63 2.97Zm1.08-5.13h2.214l-.63-3.168-.468-2.412c-.144.804-.294 1.602-.45 2.394l-.666 3.186Z"/>
  <path fill="#0D829C" d="M100.888 19.18c-.492 0-.9-.162-1.224-.486-.324-.324-.486-.732-.486-1.224s.162-.9.486-1.224c.324-.324.732-.486 1.224-.486h.54c.492 0 .9.162 1.224.486.324.324.486.732.486 1.224s-.162.9-.486 1.224c-.324.324-.732.486-1.224.486h-.54Zm4.797-.18V5.86h4.266c.9 0 1.692.174 2.376.522a3.77 3.77 0 0 1 1.584 1.476c.384.636.576 1.374.576 2.214v4.698c0 .84-.192 1.578-.576 2.214a3.887 3.887 0 0 1-1.584 1.494c-.684.348-1.476.522-2.376.522h-4.266Zm4.266-2.52c.552 0 .996-.156 1.332-.468.336-.312.504-.726.504-1.242v-4.698c0-.504-.168-.912-.504-1.224-.336-.312-.78-.468-1.332-.468h-1.566v8.1h1.566ZM124.684 19h-8.1V5.86h8.1v2.304h-5.454v2.952h4.824v2.304h-4.824v3.276h5.454V19Zm4.761 0-3.258-13.14h2.79l1.818 8.298c.108.504.252 1.248.432 2.232.132-.984.258-1.734.378-2.25l1.764-8.28h2.718L132.865 19h-3.42Z"/>
  <g clip-path="url(#a)">
    <path fill="#142850" d="m22.366 22.308-4.47-7.574C24.88 10.548 21.86.125 13.753 0H.46a.46.46 0 0 0-.447.465v22.083a.46.46 0 0 0 .46.457h2.269a.455.455 0 0 0 .406-.255l7.834-14.755 3.099 5.277h-.16l-4.488-.062a.462.462 0 0 0-.394.702l5.588 8.871a.455.455 0 0 0 .388.214h6.951a.46.46 0 0 0 .399-.689Zm-9.131-6.504a9.27 9.27 0 0 0 2.256-.148l2.834 4.801h-2.16l-2.93-4.653Zm3.372-3.255L11.269 3.51a.457.457 0 0 0-.789.018L2.541 18.456V2.54H13.8c1.473.009 2.882.6 3.92 1.644 2.492 2.407 1.87 6.69-1.112 8.365Z"/>
  </g>
  <defs>
    <clipPath id="a">
      <path fill="#fff" d="M0 0h22.428v23H0z"/>
    </clipPath>
  </defs>
</svg>
