<svg xmlns="http://www.w3.org/2000/svg" fill="currentColor" viewBox="0 0 32 32">
  <path d="m16 2.844-.563.375-12 8.031-.437.281v8.938l.438.281 12 8.031.562.375.563-.375 12-8.031.437-.281V11.53l-.438-.281-12-8.031L16 2.844Zm-1 3.062v5.438l-5.156 3.469-4.031-2.72L15 5.907Zm2 0 9.188 6.188-4.032 2.719L17 11.342V5.907Zm-1 7.188L20.344 16 16 18.906 11.656 16 16 13.094Zm-11 .844L8.063 16 5 18.063v-4.125Zm22 0v4.124L23.937 16 27 13.937Zm-17.125 3.25L15 20.655v5.438l-9.188-6.188 4.063-2.718Zm12.25 0 4.063 2.718L17 26.094v-5.438l5.125-3.468Z"/>
</svg>
