<svg xmlns="http://www.w3.org/2000/svg" fill="currentColor" viewBox="0 0 32 32">
  <path fill-rule="evenodd" d="M16 3.778c-6.75 0-12.222 5.48-12.222 12.243 0 5.408 3.501 9.997 8.359 11.616.61.112.833-.266.833-.59 0-.29-.01-1.062-.016-2.082-3.4.74-4.117-1.642-4.117-1.642-.555-1.415-1.357-1.791-1.357-1.791-1.11-.758.084-.744.084-.744 1.226.086 1.871 1.262 1.871 1.262 1.09 1.87 2.862 1.33 3.557 1.017.113-.791.428-1.33.777-1.636-2.713-.309-5.567-1.36-5.567-6.05 0-1.337.477-2.43 1.258-3.286-.126-.31-.545-1.555.12-3.24 0 0 1.026-.33 3.36 1.255A11.69 11.69 0 0 1 16 9.698c1.039.005 2.084.14 3.06.412 2.334-1.584 3.358-1.255 3.358-1.255.667 1.685.247 2.93.122 3.24.782.855 1.257 1.95 1.257 3.285 0 4.703-2.86 5.739-5.581 6.042.439.377.829 1.124.829 2.267 0 1.635-.015 2.956-.015 3.357 0 .328.22.71.84.59a12.246 12.246 0 0 0 8.352-11.615C28.222 9.258 22.75 3.778 16 3.778Z" clip-rule="evenodd"/>
</svg>
