<svg xmlns="http://www.w3.org/2000/svg" fill="currentColor" viewBox="0 0 24 24">
  <path fill-rule="evenodd" d="M2 0a2 2 0 0 0-2 2v20a2 2 0 0 0 2 2h20a2 2 0 0 0 2-2V2a2 2 0 0 0-2-2H2Zm18.931 18.396c0 1.764-1.386 2.73-3.248 2.73-1.82 0-2.996-.868-3.57-2.002l1.596-.924c.42.686.966 1.19 1.932 1.19.812 0 1.33-.406 1.33-.966 0-.672-.532-.91-1.428-1.302l-.49-.21c-1.414-.602-2.352-1.358-2.352-2.954 0-1.47 1.12-2.59 2.87-2.59 1.246 0 2.142.434 2.786 1.568l-1.526.98c-.336-.602-.7-.84-1.26-.84-.574 0-.938.364-.938.84 0 .588.364.826 1.204 1.19l.49.21c1.666.714 2.604 1.442 2.604 3.08Zm-7.883-.224c0 2.03-1.19 2.954-2.926 2.954-1.568 0-2.478-.812-2.94-1.792l1.596-.966c.308.546.588 1.008 1.26 1.008.644 0 1.05-.252 1.05-1.232V11.48h1.96v6.692Z" clip-rule="evenodd"/>
</svg>
