<svg xmlns="http://www.w3.org/2000/svg" fill="currentColor" viewBox="0 0 32 32">
  <path d="M6.792 4.083a2.727 2.727 0 0 0-2.709 2.709v18.416a2.727 2.727 0 0 0 2.709 2.709h18.416a2.727 2.727 0 0 0 2.709-2.709V6.792a2.727 2.727 0 0 0-2.709-2.709H6.792Zm0 2.167h18.416a.53.53 0 0 1 .542.542v18.416a.53.53 0 0 1-.542.542H6.792a.53.53 0 0 1-.542-.542V6.792a.53.53 0 0 1 .542-.542Zm3.182 1.862a1.862 1.862 0 1 0 0 3.724 1.862 1.862 0 0 0 0-3.724Zm9.784 4.943c-1.553 0-2.586.85-3.013 1.659h-.068v-1.422H13.63v10.291h3.182v-5.078c0-1.341.267-2.64 1.93-2.64 1.638 0 1.66 1.514 1.66 2.708v5.01h3.181V17.93c0-2.768-.588-4.875-3.825-4.875Zm-11.341.237v10.291h3.216V13.292H8.417Z"/>
</svg>
