<svg xmlns="http://www.w3.org/2000/svg" fill="none" viewBox="0 0 24 24">
  <path fill="var(--navbar)" fill-rule="evenodd" d="M12 2a1.25 1.25 0 0 1 1.25 1.25V4.5a1.25 1.25 0 0 1-2.5 0V3.25A1.25 1.25 0 0 1 12 2Zm5 10a5 5 0 1 1-10 0 5 5 0 0 1 10 0Zm-.58 6.188.884.883a1.25 1.25 0 0 0 1.767-1.767l-.884-.884a1.25 1.25 0 0 0-1.767 1.767Zm2.65-13.26a1.25 1.25 0 0 1 0 1.768l-.883.884a1.25 1.25 0 1 1-1.767-1.768l.884-.883a1.25 1.25 0 0 1 1.767 0h-.001Zm1.68 8.322a1.25 1.25 0 0 0 0-2.5H19.5a1.25 1.25 0 0 0 0 2.5h1.25Zm-8.75 5a1.25 1.25 0 0 1 1.25 1.25v1.25a1.25 1.25 0 0 1-2.5 0V19.5A1.25 1.25 0 0 1 12 18.25ZM5.812 7.58a1.25 1.25 0 1 0 1.77-1.768l-.886-.883A1.25 1.25 0 0 0 4.93 6.696l.883.884ZM7.58 18.187l-.884.884a1.25 1.25 0 0 1-1.767-1.767l.883-.884a1.25 1.25 0 0 1 1.768 1.767ZM4.5 13.25a1.25 1.25 0 0 0 0-2.5H3.25a1.25 1.25 0 0 0 0 2.5H4.5Z" clip-rule="evenodd"/>
</svg>
