<svg xmlns="http://www.w3.org/2000/svg" fill="none" viewBox="0 0 403 377">
  <path fill="var(--secondary)" d="m311.053 231.183-1.146-2.614c39.188-17.53 65.011-50.089 65.791-82.969.986-41.559-36.942-79.748-72.967-89.332-45.205-12.026-102.148 16.28-157.165 43.657-37.996 18.894-73.883 36.755-102.538 39.083-7.015.573-25.629 2.098-35.899-9.39C-2.728 118.601.252 101.117.917 97.724 5.295 76.4 26.649 64.43 46.994 55.523l1.146 2.625C28.506 66.758 7.874 78.257 3.794 98.274c-.642 3.153-3.439 19.41 5.547 29.418 9.307 10.41 26.901 8.977 33.526 8.438 28.105-2.293 63.752-20.017 101.484-38.796 55.51-27.618 112.9-56.176 159.125-43.863 19.291 5.136 38.455 17.62 52.576 34.244 14.992 17.656 22.981 38.223 22.523 57.931-.848 33.992-27.337 67.595-67.522 85.537Z"/>
  <path fill="var(--svg-fill)" d="M301.299 169.893H64.129c-5.064 0-9.17 4.106-9.17 9.172v139.122c0 5.065 4.106 9.172 9.17 9.172H301.3c5.064 0 9.169-4.107 9.169-9.172V179.065c0-5.066-4.105-9.172-9.169-9.172Z"/>
  <path fill="var(--svg-outline)" d="M301.299 328.792H64.187a10.613 10.613 0 0 1-10.603-10.605V179.065a10.612 10.612 0 0 1 10.602-10.605H301.3a10.619 10.619 0 0 1 10.602 10.605v139.122a10.615 10.615 0 0 1-10.602 10.605ZM64.187 171.326a7.746 7.746 0 0 0-7.737 7.739v139.122a7.753 7.753 0 0 0 7.737 7.739h237.112a7.748 7.748 0 0 0 7.736-7.739V179.065a7.752 7.752 0 0 0-7.736-7.739H64.187Z"/>
  <path fill="var(--svg-outline)" d="M296.462 317.774H68.966a2.581 2.581 0 0 1-2.579-2.579V182.068a2.58 2.58 0 0 1 2.58-2.579h227.495a2.579 2.579 0 0 1 2.579 2.579v133.127a2.58 2.58 0 0 1-2.579 2.579Zm-227.21-2.866h226.946V182.355H69.253v132.553Z"/>
  <path fill="var(--svg-fill)" d="m351.043 366.957-4.287 7.372a3.428 3.428 0 0 1-2.762 1.238H21.044a3.443 3.443 0 0 1-2.75-1.238l-3.91-7.372"/>
  <path fill="var(--svg-outline)" d="M343.994 377H21.044a4.818 4.818 0 0 1-3.92-1.834l-.103-.161-3.897-7.383 2.533-1.341 3.828 7.28a2.124 2.124 0 0 0 1.547.573h322.962a2.094 2.094 0 0 0 1.57-.596l4.241-7.303 2.476 1.444-4.355 7.487a4.88 4.88 0 0 1-3.932 1.834Z"/>
  <path fill="var(--svg-fill)" d="M310.136 327.359H57.309a3.23 3.23 0 0 0-2.108.791l-40.117 34.989a3.225 3.225 0 0 0 .284 5.061 3.221 3.221 0 0 0 1.825.58h330.629a3.208 3.208 0 0 0 2.994-2.041 3.212 3.212 0 0 0-.816-3.531l-37.675-34.99a3.23 3.23 0 0 0-2.189-.859Z"/>
  <path fill="var(--svg-outline)" d="M347.822 370.213H17.273a4.642 4.642 0 0 1-3.049-8.151l40.117-34.99a4.582 4.582 0 0 1 3.049-1.147h252.746a4.687 4.687 0 0 1 3.163 1.239l37.687 34.989a4.652 4.652 0 0 1 1.12 5.079 4.66 4.66 0 0 1-4.284 2.947v.034ZM57.309 328.792c-.42.006-.826.16-1.146.435l-40.116 34.99a1.743 1.743 0 0 0-.493 1.972 1.733 1.733 0 0 0 1.662 1.146h330.606a1.791 1.791 0 0 0 1.727-2.186 1.795 1.795 0 0 0-.523-.909l-37.675-34.978a1.792 1.792 0 0 0-1.215-.482l-252.827.012Z"/>
  <path fill="var(--svg-outline)" d="M289.63 356.88H75.798a2.53 2.53 0 0 1-2.293-1.582 2.834 2.834 0 0 1 .539-3.061l17.903-18.676a2.455 2.455 0 0 1 1.788-.78H272.38a2.482 2.482 0 0 1 1.823.814l17.25 18.722a2.83 2.83 0 0 1 .493 3.038 2.519 2.519 0 0 1-2.316 1.525Zm-213.351-2.901h212.893l-16.975-18.4H93.873l-17.594 18.4Z"/>
  <path fill="var(--primary)" d="M279.166 201.948h-14.328a1.434 1.434 0 0 1 0-2.866h14.328a1.432 1.432 0 0 1 0 2.866ZM254.339 201.948H240a1.432 1.432 0 0 1 0-2.866h14.339a1.43 1.43 0 0 1 1.433 1.433 1.432 1.432 0 0 1-1.433 1.433ZM229.501 201.948h-14.338a1.43 1.43 0 0 1-1.433-1.433 1.43 1.43 0 0 1 1.433-1.433h14.338a1.434 1.434 0 0 1 1.014 2.446c-.269.269-.634.42-1.014.42ZM120.946 272.42H96.773a3.736 3.736 0 0 1-3.725-3.726v-4.941a3.737 3.737 0 0 1 3.725-3.726h24.173a3.738 3.738 0 0 1 3.725 3.726v4.941a3.737 3.737 0 0 1-3.725 3.726Zm-24.173-9.527a.87.87 0 0 0-.86.86v4.941a.87.87 0 0 0 .86.86h24.173a.867.867 0 0 0 .859-.86v-4.941a.863.863 0 0 0-.255-.604.868.868 0 0 0-.604-.256H96.773Z"/>
  <path fill="var(--svg-outline)" d="M134.895 236.651H94.526a1.432 1.432 0 0 1 0-2.866h40.369a1.432 1.432 0 0 1 0 2.866ZM151.744 248.035H94.526a1.435 1.435 0 0 1-1.432-1.433 1.433 1.433 0 0 1 1.432-1.433h57.218a1.432 1.432 0 0 1 0 2.866Z"/>
  <path fill="var(--primary)" d="M85.964 201.948a1.273 1.273 0 0 1-.55-.115 1.242 1.242 0 0 1-.459-.309 1.206 1.206 0 0 1-.309-.459 1.463 1.463 0 0 1-.092-.264 1.255 1.255 0 0 1 0-.286c-.008-.19.032-.379.115-.55a.874.874 0 0 1 .126-.253.798.798 0 0 1 .183-.217 1.418 1.418 0 0 1 1.284-.39l.264.08c.09.034.174.081.252.138.08.047.153.105.218.172a1.42 1.42 0 0 1 .424 1.02c.01.095.01.191 0 .286a1.355 1.355 0 0 1-.08.264 1.605 1.605 0 0 1-.127.241c-.051.08-.113.153-.183.218a1.397 1.397 0 0 1-1.066.424ZM108.888 201.948H94.526a1.432 1.432 0 0 1 0-2.866h14.362a1.432 1.432 0 0 1 0 2.866Z"/>
  <path fill="var(--svg-fill)" d="M268.713 222.24h-84.922c-.633 0-1.146.513-1.146 1.147v59.638c0 .633.513 1.147 1.146 1.147h84.922c.633 0 1.146-.514 1.146-1.147v-59.638c0-.634-.513-1.147-1.146-1.147Z"/>
  <path fill="var(--primary)" d="M200.709 245.376a6.11 6.11 0 0 0 6.109-6.111 6.11 6.11 0 1 0-12.218 0 6.11 6.11 0 0 0 6.109 6.111Z"/>
  <path fill="var(--svg-outline)" d="M268.713 285.605h-84.922a2.58 2.58 0 0 1-2.579-2.58V223.41c0-.685.272-1.341.756-1.824a2.576 2.576 0 0 1 1.823-.756h84.922a2.579 2.579 0 0 1 2.578 2.58v59.615a2.579 2.579 0 0 1-2.578 2.58Zm-84.635-2.866h84.348v-59.066h-84.348v59.066Z"/>
  <path fill="var(--primary)" d="m249.72 230.116-22.213 31.149a1.068 1.068 0 0 1-.871.452 1.068 1.068 0 0 1-.871-.452l-9.536-13.356a1.077 1.077 0 0 0-1.743 0l-19.875 27.859a1.083 1.083 0 0 0 .316 1.536c.167.103.359.159.556.161h87.626a1.081 1.081 0 0 0 .956-.58 1.08 1.08 0 0 0-.074-1.117l-32.563-45.652a1.076 1.076 0 0 0-1.708 0Z"/>
  <path fill="var(--svg-fill)" d="m89.378 3.623-43.89-2.185a1.146 1.146 0 0 0-1.203 1.088l-3.81 76.569a1.146 1.146 0 0 0 1.087 1.202l43.89 2.185a1.146 1.146 0 0 0 1.203-1.088l3.81-76.569a1.146 1.146 0 0 0-1.087-1.202Z"/>
  <path fill="var(--svg-outline)" d="M85.517 83.909h-.126l-43.899-2.178a2.59 2.59 0 0 1-2.453-2.706l3.817-76.572A2.57 2.57 0 0 1 45.55 0l43.853 2.19a2.567 2.567 0 0 1 2.453 2.705l-3.771 76.572a2.557 2.557 0 0 1-2.568 2.442Zm-43.6-5.033 43.325 2.155 3.782-75.998L45.7 2.878l-3.783 75.998Z"/>
  <path fill="var(--svg-outline)" d="m40.934 70.009-.143 2.862 46.18 2.3.143-2.863-46.18-2.3ZM43.98 8.75l-.142 2.863 46.18 2.3.143-2.864L43.98 8.75Z"/>
  <path fill="var(--svg-fill)" d="m99.269 22.202-41.504 1.696a1.146 1.146 0 0 0-1.098 1.193l1.056 25.842c.026.633.56 1.125 1.192 1.099l41.503-1.697a1.147 1.147 0 0 0 1.099-1.192l-1.056-25.842a1.147 1.147 0 0 0-1.192-1.099Z"/>
  <path fill="var(--svg-outline)" d="M58.88 53.46a2.59 2.59 0 0 1-2.58-2.477l-1.054-25.841a2.568 2.568 0 0 1 2.465-2.683l41.503-1.697h.103a2.589 2.589 0 0 1 2.579 2.477l1.055 25.84a2.502 2.502 0 0 1-.677 1.846 2.549 2.549 0 0 1-1.788.837L58.983 53.46h-.103Zm-.768-28.146 1.031 25.222 40.942-1.674-1.043-25.222-40.93 1.674Z"/>
  <path fill="var(--primary)" d="M74.72 33.843a1.432 1.432 0 1 1 0-2.866l16.7-.688a1.467 1.467 0 0 1 1.49 1.376 1.423 1.423 0 0 1-1.375 1.49l-16.689.688h-.126ZM75.373 40.562a1.444 1.444 0 0 1-1.008-.425 1.435 1.435 0 0 1 2.017-2.04 1.445 1.445 0 0 1-1.009 2.465ZM81.38 40.367a1.433 1.433 0 0 1-.058-2.866l10.316-.425a1.433 1.433 0 0 1 .114 2.867l-10.315.412-.058.012Z"/>
  <path fill="var(--svg-fill)" d="M360.786 23.972h-148.42c-5.064 0-9.17 4.107-9.17 9.172v85.01a9.17 9.17 0 0 0 9.17 9.171h148.42c5.064 0 9.169-4.106 9.169-9.171v-85.01c0-5.065-4.105-9.172-9.169-9.172Z"/>
  <path fill="var(--primary)" d="M287.923 56.612h-20.861a1.433 1.433 0 0 1 0-2.866h20.861a1.433 1.433 0 0 1 0 2.866ZM288.14 90.111h-21.078a1.433 1.433 0 0 1 0-2.866h21.055a1.435 1.435 0 0 1 1.433 1.433 1.436 1.436 0 0 1-1.433 1.433h.023ZM328.097 67.423h-40.404a1.433 1.433 0 0 1 0-2.866h40.381a1.433 1.433 0 0 1 0 2.866h.023ZM355.72 67.423h-17.48a1.433 1.433 0 0 1 0-2.866h17.48a1.433 1.433 0 0 1 0 2.866ZM312.394 56.612h-14.328a1.433 1.433 0 0 1 0-2.866h14.328a1.433 1.433 0 0 1 0 2.866ZM313.379 90.111h-14.338a1.431 1.431 0 0 1-1.013-2.446c.268-.269.633-.42 1.013-.42h14.338a1.435 1.435 0 0 1 1.433 1.433 1.436 1.436 0 0 1-1.433 1.433ZM333.541 56.612h-11.003a1.431 1.431 0 0 1-1.013-2.447c.268-.268.633-.42 1.013-.42h11.003a1.433 1.433 0 0 1 0 2.867ZM307.912 78.234h-19.989a1.431 1.431 0 0 1-1.433-1.433 1.432 1.432 0 0 1 1.433-1.433h19.989a1.431 1.431 0 0 1 1.433 1.433 1.432 1.432 0 0 1-1.433 1.433ZM256.139 61.908c-.346 0-.68-.126-.94-.355l-5.651-4.93a1.422 1.422 0 0 1-.481-1.031 1.349 1.349 0 0 1 .412-1.055l5.651-5.732a1.434 1.434 0 0 1 2.029 2.029l-4.585 4.586 4.505 3.92a1.434 1.434 0 0 1 .137 2.018 1.462 1.462 0 0 1-1.077.55ZM324.28 95.408a1.434 1.434 0 0 1-1.009-2.442l4.585-4.586-4.505-3.92a1.442 1.442 0 0 1-.137-2.03 1.436 1.436 0 0 1 2.029-.138l5.65 4.93a1.479 1.479 0 0 1 .493 1.032 1.426 1.426 0 0 1-.424 1.066l-5.651 5.664a1.423 1.423 0 0 1-1.031.424ZM203.873 36.56h35.531v89.768h-28.78a6.74 6.74 0 0 1-6.74-6.741V36.56h-.011Z"/>
  <path fill="var(--svg-fill)" d="M229.731 46.5h-17.789a1.431 1.431 0 0 1-1.433-1.433 1.432 1.432 0 0 1 1.433-1.433h17.789a1.433 1.433 0 0 1 0 2.866ZM221.627 54.594h-9.685a1.431 1.431 0 0 1-1.433-1.433 1.432 1.432 0 0 1 1.433-1.433h9.685a1.433 1.433 0 0 1 0 2.866ZM225.226 62.7h-13.284a1.431 1.431 0 0 1-1.013-2.447c.268-.269.633-.42 1.013-.42h13.284a1.431 1.431 0 0 1 1.013 2.447c-.268.269-.633.42-1.013.42ZM229.731 74.978h-17.789a1.431 1.431 0 0 1-1.013-2.446c.268-.269.633-.42 1.013-.42h17.789a1.433 1.433 0 0 1 0 2.866ZM221.627 83.084h-9.685a1.431 1.431 0 0 1-1.433-1.434 1.432 1.432 0 0 1 1.433-1.433h9.685a1.433 1.433 0 0 1 0 2.867ZM225.226 91.177h-13.284a1.431 1.431 0 0 1-1.013-2.446c.268-.269.633-.42 1.013-.42h13.284a1.431 1.431 0 0 1 1.013 2.447c-.268.269-.633.42-1.013.42Z"/>
  <path fill="var(--svg-outline)" d="M360.774 128.747H212.366a10.61 10.61 0 0 1-10.602-10.605V33.144a10.614 10.614 0 0 1 10.602-10.605h148.408a10.602 10.602 0 0 1 10.591 10.605v84.998a10.606 10.606 0 0 1-10.591 10.605ZM212.366 25.405a7.737 7.737 0 0 0-7.737 7.739v84.998a7.738 7.738 0 0 0 7.737 7.739h148.408a7.738 7.738 0 0 0 7.737-7.739V33.144a7.74 7.74 0 0 0-7.737-7.739H212.366Z"/>
  <path fill="var(--svg-outline)" d="M369.955 34.267H203.196v2.867h166.759v-2.867Z"/>
  <path fill="var(--svg-fill)" d="M392.501 139.145a4.949 4.949 0 0 0 1.742-3.508l1.284-25.692a5.473 5.473 0 0 0-1.577-3.866 5.472 5.472 0 0 0-3.845-1.626l-16.665-.825a4.022 4.022 0 0 1-2.682-1.146l-4.264-4.357a4 4 0 0 0-2.682-1.147l-13.147-.676a5.455 5.455 0 0 0-5.937 4.918l-1.582 31.918a4.857 4.857 0 0 0 .825 2.958"/>
  <path fill="var(--svg-outline)" d="m393.441 140.234-1.88-2.166a3.557 3.557 0 0 0 1.249-2.5l1.284-25.703a4.035 4.035 0 0 0-4.057-3.978l-16.666-.826a5.45 5.45 0 0 1-3.633-1.605l-4.276-4.368a2.577 2.577 0 0 0-1.719-.745l-13.158-.654a4.402 4.402 0 0 0-3.095.998 3.447 3.447 0 0 0-1.341 2.556l-1.593 31.918a3.441 3.441 0 0 0 .596 2.098l-2.396 1.582a6.306 6.306 0 0 1-1.054-3.818l1.582-31.929a6.378 6.378 0 0 1 .698-2.541 6.38 6.38 0 0 1 1.663-2.044 7.335 7.335 0 0 1 5.089-1.686l13.147.654a5.455 5.455 0 0 1 3.633 1.605l4.275 4.368a2.604 2.604 0 0 0 1.72.745l16.665.837a6.871 6.871 0 0 1 6.314 4.371c.331.845.491 1.749.472 2.657l-1.284 25.692a6.39 6.39 0 0 1-2.235 4.482Z"/>
  <path fill="var(--svg-fill)" d="M345.324 137.964a6.398 6.398 0 0 0 3.736 1.433l42.054 2.098a4.971 4.971 0 0 0 5.238-3.439l5.043-17.781c.94-3.302-1.96-6.879-5.731-7.005l-42.076-2.064a4.995 4.995 0 0 0-5.25 3.439l-5.043 17.782a5.364 5.364 0 0 0 2.029 5.572"/>
  <path fill="var(--svg-outline)" d="M391.412 142.928h-.378l-42.042-2.098a8.024 8.024 0 0 1-4.585-1.742 6.88 6.88 0 0 1-2.499-7.085l5.043-17.782a6.453 6.453 0 0 1 6.694-4.482l42.042 2.098a7.902 7.902 0 0 1 3.374.944 7.9 7.9 0 0 1 2.632 2.312 6.506 6.506 0 0 1 1.066 5.571l-5.031 17.782a6.4 6.4 0 0 1-6.316 4.482Zm-38.134-30.335a3.536 3.536 0 0 0-2.191.598 3.537 3.537 0 0 0-1.373 1.81l-5.044 17.781a3.988 3.988 0 0 0 1.548 4.07 5.067 5.067 0 0 0 2.923 1.147l42.042 2.098a3.61 3.61 0 0 0 3.794-2.396l5.043-17.782a3.646 3.646 0 0 0-.642-3.118 5.03 5.03 0 0 0-3.817-2.075l-42.053-2.087-.23-.046Z"/>
  <path fill="var(--primary)" d="M357.118 238.096a4.85 4.85 0 1 1 1.855-9.33 4.847 4.847 0 0 1 1.573 7.909 4.845 4.845 0 0 1-3.428 1.421Zm0-7.406a2.554 2.554 0 0 0-1.807 4.364 2.557 2.557 0 1 0 1.807-4.364Z"/>
  <path fill="var(--secondary)" d="M131.812 80.068a4.862 4.862 0 0 1-.957-9.629 4.856 4.856 0 0 1 4.991 2.075 4.865 4.865 0 0 1-.609 6.13 4.86 4.86 0 0 1-3.425 1.424Zm0-7.417a2.567 2.567 0 1 0-.024 5.134 2.567 2.567 0 0 0 .024-5.134ZM352.51 160.905a2.018 2.018 0 1 0 0-4.036 2.018 2.018 0 0 0 0 4.036Z"/>
  <path fill="var(--primary)" d="M21.101 44.975a2.018 2.018 0 1 0 0-4.035 2.018 2.018 0 0 0 0 4.035ZM176.101 123.817a1.148 1.148 0 0 1-1.147-1.146v-3.784a1.145 1.145 0 0 1 1.957-.81c.215.215.336.506.336.81v3.784a1.145 1.145 0 0 1-1.146 1.146ZM176.101 114.943a1.147 1.147 0 0 1-1.147-1.146v-3.737a1.148 1.148 0 0 1 2.293 0v3.783a1.146 1.146 0 0 1-1.146 1.1ZM182.427 117.58h-3.782a1.147 1.147 0 1 1 0-2.293h3.782a1.148 1.148 0 0 1 0 2.293ZM173.613 117.58h-3.782a1.147 1.147 0 1 1 0-2.293h3.782a1.148 1.148 0 0 1 0 2.293Z"/>
  <path fill="var(--secondary)" d="M395.309 84.333a1.145 1.145 0 0 1-1.146-1.146v-3.784a1.147 1.147 0 0 1 2.292 0v3.784a1.146 1.146 0 0 1-1.146 1.146ZM395.309 75.505a1.145 1.145 0 0 1-1.146-1.146v-3.783a1.147 1.147 0 0 1 2.292 0v3.783a1.146 1.146 0 0 1-1.146 1.147ZM401.636 78.154h-3.782a1.147 1.147 0 0 1 0-2.293h3.782a1.147 1.147 0 0 1 0 2.293ZM392.822 78.154h-3.783a1.147 1.147 0 0 1 0-2.293h3.783a1.145 1.145 0 0 1 .81 1.957 1.145 1.145 0 0 1-.81.336Z"/>
</svg>
