<?xml version="1.0" standalone="no"?>
<!DOCTYPE svg PUBLIC "-//W3C//DTD SVG 20010904//EN"
 "http://www.w3.org/TR/2001/REC-SVG-20010904/DTD/svg10.dtd">
<svg version="1.0" xmlns="http://www.w3.org/2000/svg"
 width="700.000000pt" height="700.000000pt" viewBox="0 0 700.000000 700.000000"
 preserveAspectRatio="xMidYMid meet">
<metadata>
Created by potrace 1.11, written by Peter Selinger 2001-2013
</metadata>
<g transform="translate(0.000000,700.000000) scale(0.100000,-0.100000)"
fill="#000000" stroke="none">
<path d="M3245 6994 c-16 -2 -79 -9 -140 -15 -386 -38 -795 -159 -1166 -344
-352 -176 -641 -385 -924 -669 -485 -488 -815 -1105 -949 -1776 -52 -259 -60
-354 -61 -685 0 -315 4 -374 46 -615 148 -857 636 -1654 1336 -2182 618 -466
1341 -708 2113 -708 395 0 767 61 1132 186 1026 351 1831 1157 2183 2184 76
223 129 456 167 730 17 128 17 672 0 800 -90 660 -306 1199 -677 1695 -573
766 -1412 1256 -2365 1381 -118 15 -619 28 -695 18z m1046 -1482 c309 -71 529
-191 744 -406 134 -134 198 -222 273 -371 99 -198 142 -383 142 -611 0 -171
-19 -290 -70 -445 -73 -221 -175 -385 -344 -555 -98 -98 -151 -139 -310 -239
-13 -8 51 -122 416 -739 342 -578 429 -732 421 -745 -9 -14 -74 -16 -673 -16
l-664 0 -523 829 c-337 534 -523 837 -521 850 3 21 5 21 473 18 262 -2 476 1
483 6 10 7 -42 102 -213 393 -125 211 -266 450 -313 532 -86 146 -111 172
-138 146 -7 -8 -342 -633 -743 -1389 -446 -840 -737 -1377 -748 -1381 -10 -4
-113 -8 -230 -8 -180 -1 -214 1 -227 15 -14 14 -16 215 -16 2068 0 1614 3
2055 12 2064 10 10 297 12 1343 9 1328 -3 1330 -3 1426 -25z"/>
<path d="M1890 5151 c-7 -13 -10 -506 -10 -1525 0 -1354 2 -1506 16 -1520 20
-21 37 -20 56 2 9 9 219 402 469 872 910 1717 1026 1934 1042 1944 12 8 20 7
31 -4 8 -8 240 -397 516 -865 276 -467 503 -851 505 -853 6 -7 82 37 141 82
193 145 331 348 396 584 18 65 22 105 22 257 0 215 -13 277 -98 450 -126 255
-348 448 -621 542 -157 53 -150 53 -1346 53 -1086 0 -1109 0 -1119 -19z"/>
<path d="M4275 2733 c-39 -8 -141 -15 -230 -16 -88 -1 -166 -6 -172 -10 -7 -5
-13 -18 -13 -29 0 -11 129 -225 287 -474 l287 -454 233 0 c223 0 233 1 243 20
13 24 37 -19 -303 555 -136 231 -251 420 -255 421 -4 1 -38 -5 -77 -13z"/>
</g>
</svg>
