<svg xmlns="http://www.w3.org/2000/svg" fill="none" viewBox="0 0 201 52">
  <path fill="#E4F5F6" fill-rule="evenodd" d="M152.483 14.524a4 4 0 0 1-4-4V4a4 4 0 0 1 4-4h6.526a4 4 0 0 1 4 4v6.524a4 4 0 0 1-4 4h-6.526ZM115.363 14.524a4 4 0 0 1-4-4V4a4 4 0 0 1 4-4h6.525a4 4 0 0 1 4 4v6.524a4 4 0 0 1-4 4h-6.525ZM78.242 14.524a4 4 0 0 1-4-4V4a4 4 0 0 1 4-4h6.525a4 4 0 0 1 4 4v6.524a4 4 0 0 1-4 4h-6.525ZM41.12 14.524a4 4 0 0 1-4-4V4a4 4 0 0 1 4-4h6.526a4 4 0 0 1 4 4v6.524a4 4 0 0 1-4 4h-6.525ZM189.605 14.524a4 4 0 0 1-4-4V4a4 4 0 0 1 4-4h6.525a4 4 0 0 1 4 4v6.524a4 4 0 0 1-4 4h-6.525ZM152.484 51.641a4 4 0 0 1-4-4v-6.524a4 4 0 0 1 4-4h6.525a4 4 0 0 1 4 4v6.524a4 4 0 0 1-4 4h-6.525ZM115.363 51.641a4 4 0 0 1-4-4v-6.524a4 4 0 0 1 4-4h6.525a4 4 0 0 1 4 4v6.524a4 4 0 0 1-4 4h-6.525ZM78.242 51.641a4 4 0 0 1-4-4v-6.524a4 4 0 0 1 4-4h6.525a4 4 0 0 1 4 4v6.524a4 4 0 0 1-4 4h-6.525ZM41.12 51.641a4 4 0 0 1-4-4v-6.524a4 4 0 0 1 4-4h6.527a4 4 0 0 1 4 4v6.524a4 4 0 0 1-4 4H41.12ZM4 51.641a4 4 0 0 1-4-4v-6.524a4 4 0 0 1 4-4h6.525a4 4 0 0 1 4 4v6.524a4 4 0 0 1-4 4H4Z" clip-rule="evenodd"/>
</svg>
